<svg width="323" height="204" viewBox="0 0 323 204" fill="none" xmlns="http://www.w3.org/2000/svg">
<g clip-path="url(#clip0_39:112)">
<path d="M205.42 63.8229C206.029 57.2616 207.711 50.8447 210.4 44.8287C211.15 43.1545 211.975 41.5172 212.875 39.9167C212.92 39.833 212.931 39.7351 212.905 39.6435C212.88 39.5519 212.819 39.4739 212.737 39.4259C212.655 39.3779 212.558 39.3637 212.465 39.3862C212.373 39.4088 212.293 39.4663 212.242 39.5468C208.968 45.3761 206.674 51.7039 205.453 58.2772C205.113 60.1128 204.858 61.9614 204.687 63.8229C204.643 64.2925 205.376 64.2895 205.42 63.8229Z" fill="#E6E6E6"/>
<path d="M214.65 41.0924C217.214 41.0924 219.293 39.0138 219.293 36.4498C219.293 33.8858 217.214 31.8072 214.65 31.8072C212.086 31.8072 210.008 33.8858 210.008 36.4498C210.008 39.0138 212.086 41.0924 214.65 41.0924Z" fill="#FF8761"/>
<path d="M205.894 63.9463C206.29 59.6896 207.381 55.5267 209.126 51.6238C209.612 50.5377 210.147 49.4755 210.731 48.4372C210.76 48.3829 210.768 48.3193 210.751 48.2599C210.734 48.2005 210.695 48.1499 210.642 48.1188C210.589 48.0877 210.525 48.0784 210.465 48.0931C210.405 48.1077 210.354 48.145 210.321 48.1972C208.197 51.9789 206.709 56.0841 205.916 60.3485C205.696 61.5393 205.53 62.7386 205.419 63.9463C205.391 64.2509 205.866 64.2489 205.894 63.9463Z" fill="#E6E6E6"/>
<path d="M211.883 49.1999C213.546 49.1999 214.895 47.8514 214.895 46.188C214.895 44.5246 213.546 43.1762 211.883 43.1762C210.22 43.1762 208.871 44.5246 208.871 46.188C208.871 47.8514 210.22 49.1999 211.883 49.1999Z" fill="#FF8761"/>
<path d="M205.294 63.6619C202.988 60.0625 201.288 56.1088 200.263 51.9585C199.978 50.8031 199.747 49.6364 199.569 48.4584C199.559 48.3976 199.525 48.3431 199.476 48.3065C199.426 48.2699 199.364 48.2541 199.303 48.2623C199.242 48.2705 199.186 48.3021 199.148 48.3506C199.109 48.399 199.091 48.4604 199.098 48.5218C199.749 52.81 201.1 56.9621 203.098 60.8119C203.657 61.8865 204.264 62.934 204.919 63.9544C205.084 64.2119 205.458 63.9178 205.294 63.6619Z" fill="#E6E6E6"/>
<path d="M199.094 48.9884C200.757 48.9884 202.106 47.64 202.106 45.9766C202.106 44.3132 200.757 42.9647 199.094 42.9647C197.43 42.9647 196.082 44.3132 196.082 45.9766C196.082 47.64 197.43 48.9884 199.094 48.9884Z" fill="#FF8761"/>
<path d="M196.048 66.3267V60.4091C196.049 59.8207 196.283 59.2567 196.699 58.8407C197.115 58.4246 197.679 58.1906 198.267 58.19H212.075C212.663 58.1906 213.227 58.4246 213.643 58.8407C214.059 59.2567 214.293 59.8207 214.294 60.4091V66.3267C214.293 66.915 214.059 67.4791 213.643 67.8951C213.227 68.3111 212.663 68.5451 212.075 68.5458H198.267C197.679 68.5451 197.115 68.3111 196.699 67.8951C196.283 67.4791 196.049 66.915 196.048 66.3267Z" fill="#F2F2F2"/>
<path d="M211.582 28.6019H205.664C205.076 28.6012 204.512 28.3672 204.096 27.9512C203.68 27.5351 203.446 26.9711 203.445 26.3827V2.2191C203.446 1.63076 203.68 1.06671 204.096 0.650694C204.512 0.234674 205.076 0.00065542 205.664 -7.62939e-06H211.582C212.17 0.00065542 212.734 0.234674 213.15 0.650694C213.566 1.06671 213.8 1.63076 213.801 2.2191V26.3827C213.8 26.9711 213.566 27.5351 213.15 27.9512C212.734 28.3672 212.17 28.6012 211.582 28.6019Z" fill="#F2F2F2"/>
<path d="M213.554 4.68478H203.692V6.65732H213.554V4.68478Z" fill="#CCCCCC"/>
<path d="M213.554 19.972H203.692V21.9445H213.554V19.972Z" fill="#CCCCCC"/>
<path d="M226.376 28.6019H220.458C219.87 28.6012 219.306 28.3672 218.89 27.9512C218.474 27.5351 218.24 26.9711 218.239 26.3827V2.2191C218.24 1.63076 218.474 1.06671 218.89 0.650694C219.306 0.234674 219.87 0.00065542 220.458 -7.62939e-06H226.376C226.964 0.00065542 227.528 0.234674 227.944 0.650694C228.36 1.06671 228.594 1.63076 228.595 2.2191V26.3827C228.594 26.9711 228.36 27.5351 227.944 27.9512C227.528 28.3672 226.964 28.6012 226.376 28.6019Z" fill="#F2F2F2"/>
<path d="M228.348 4.68478H218.486V6.65732H228.348V4.68478Z" fill="#CCCCCC"/>
<path d="M228.348 19.972H218.486V21.9445H228.348V19.972Z" fill="#CCCCCC"/>
<path d="M241.17 28.6019H235.252C234.664 28.6012 234.1 28.3672 233.684 27.9512C233.268 27.5351 233.034 26.9711 233.033 26.3827V2.2191C233.034 1.63076 233.268 1.06671 233.684 0.650694C234.1 0.234674 234.664 0.00065542 235.252 -7.62939e-06H241.17C241.758 0.00065542 242.322 0.234674 242.738 0.650694C243.154 1.06671 243.388 1.63076 243.389 2.2191V26.3827C243.388 26.9711 243.154 27.5351 242.738 27.9512C242.322 28.3672 241.758 28.6012 241.17 28.6019Z" fill="#F2F2F2"/>
<path d="M243.142 4.68478H233.279V6.65732H243.142V4.68478Z" fill="#CCCCCC"/>
<path d="M243.142 19.972H233.279V21.9445H243.142V19.972Z" fill="#CCCCCC"/>
<path d="M249.06 68.5458H243.142C242.554 68.5452 241.99 68.3111 241.574 67.8951C241.158 67.4791 240.924 66.9151 240.923 66.3267V42.1631C240.924 41.5747 241.158 41.0107 241.574 40.5947C241.99 40.1786 242.554 39.9446 243.142 39.944H249.06C249.648 39.9446 250.212 40.1786 250.628 40.5947C251.044 41.0107 251.278 41.5747 251.279 42.1631V66.3267C251.278 66.9151 251.044 67.4791 250.628 67.8951C250.212 68.3111 249.648 68.5452 249.06 68.5458Z" fill="#F2F2F2"/>
<path d="M251.032 44.6288H241.17V46.6013H251.032V44.6288Z" fill="#CCCCCC"/>
<path d="M251.032 59.9159H241.17V61.8885H251.032V59.9159Z" fill="#CCCCCC"/>
<path d="M263.854 68.5458H257.936C257.348 68.5452 256.784 68.3111 256.368 67.8951C255.952 67.4791 255.718 66.9151 255.717 66.3267V42.1631C255.718 41.5747 255.952 41.0107 256.368 40.5947C256.784 40.1786 257.348 39.9446 257.936 39.944H263.854C264.442 39.9446 265.006 40.1786 265.422 40.5947C265.838 41.0107 266.072 41.5747 266.073 42.1631V66.3267C266.072 66.9151 265.838 67.4791 265.422 67.8951C265.006 68.3111 264.442 68.5452 263.854 68.5458Z" fill="#F2F2F2"/>
<path d="M265.826 44.6288H255.964V46.6013H265.826V44.6288Z" fill="#CCCCCC"/>
<path d="M265.826 59.9159H255.964V61.8885H265.826V59.9159Z" fill="#CCCCCC"/>
<path d="M278.647 68.5458H272.73C272.142 68.5452 271.578 68.3111 271.162 67.8951C270.746 67.4791 270.512 66.9151 270.511 66.3267V42.1631C270.512 41.5747 270.746 41.0107 271.162 40.5947C271.578 40.1786 272.142 39.9446 272.73 39.944H278.647C279.236 39.9446 279.8 40.1786 280.216 40.5947C280.632 41.0107 280.866 41.5747 280.867 42.1631V66.3267C280.866 66.9151 280.632 67.4791 280.216 67.8951C279.8 68.3111 279.236 68.5452 278.647 68.5458Z" fill="#F2F2F2"/>
<path d="M280.62 44.6288H270.757V46.6013H280.62V44.6288Z" fill="#CCCCCC"/>
<path d="M280.62 59.9159H270.757V61.8885H280.62V59.9159Z" fill="#CCCCCC"/>
<path d="M210.102 108.49H204.185C203.597 108.489 203.032 108.255 202.616 107.839C202.2 107.423 201.966 106.859 201.966 106.271V82.107C201.966 81.5187 202.2 80.9546 202.616 80.5386C203.032 80.1226 203.597 79.8886 204.185 79.8879H210.102C210.691 79.8886 211.255 80.1226 211.671 80.5386C212.087 80.9546 212.321 81.5187 212.321 82.107V106.271C212.321 106.859 212.087 107.423 211.671 107.839C211.255 108.255 210.691 108.489 210.102 108.49Z" fill="#F2F2F2"/>
<path d="M212.075 84.5727H202.212V86.5453H212.075V84.5727Z" fill="#CCCCCC"/>
<path d="M212.075 99.8599H202.212V101.832H212.075V99.8599Z" fill="#CCCCCC"/>
<path d="M224.896 108.49H218.979C218.39 108.489 217.826 108.255 217.41 107.839C216.994 107.423 216.76 106.859 216.76 106.271V82.107C216.76 81.5187 216.994 80.9546 217.41 80.5386C217.826 80.1226 218.39 79.8886 218.979 79.8879H224.896C225.485 79.8886 226.049 80.1226 226.465 80.5386C226.881 80.9546 227.115 81.5187 227.115 82.107V106.271C227.115 106.859 226.881 107.423 226.465 107.839C226.049 108.255 225.485 108.489 224.896 108.49Z" fill="#F2F2F2"/>
<path d="M226.869 84.5727H217.006V86.5453H226.869V84.5727Z" fill="#CCCCCC"/>
<path d="M226.869 99.8599H217.006V101.832H226.869V99.8599Z" fill="#CCCCCC"/>
<path d="M239.69 108.49H233.773C233.184 108.489 232.62 108.255 232.204 107.839C231.788 107.423 231.554 106.859 231.554 106.271V82.107C231.554 81.5187 231.788 80.9546 232.204 80.5386C232.62 80.1226 233.184 79.8886 233.773 79.8879H239.69C240.279 79.8886 240.843 80.1226 241.259 80.5386C241.675 80.9546 241.909 81.5187 241.909 82.107V106.271C241.909 106.859 241.675 107.423 241.259 107.839C240.843 108.255 240.279 108.489 239.69 108.49Z" fill="#F2F2F2"/>
<path d="M241.663 84.5727H231.8V86.5453H241.663V84.5727Z" fill="#CCCCCC"/>
<path d="M241.663 99.8599H231.8V101.832H241.663V99.8599Z" fill="#CCCCCC"/>
<path d="M255.963 28.6019H250.046C249.458 28.6012 248.894 28.3672 248.478 27.9512C248.061 27.5351 247.828 26.9711 247.827 26.3827V2.2191C247.828 1.63076 248.061 1.06671 248.478 0.650694C248.894 0.234674 249.458 0.00065542 250.046 -7.62939e-06H255.963C256.552 0.00065542 257.116 0.234674 257.532 0.650694C257.948 1.06671 258.182 1.63076 258.183 2.2191V26.3827C258.182 26.9711 257.948 27.5351 257.532 27.9512C257.116 28.3672 256.552 28.6012 255.963 28.6019Z" fill="#F2F2F2"/>
<path d="M257.936 4.68478H248.073V6.65732H257.936V4.68478Z" fill="#CCCCCC"/>
<path d="M257.936 19.972H248.073V21.9445H257.936V19.972Z" fill="#CCCCCC"/>
<path d="M270.757 28.6019H264.84C264.251 28.6012 263.687 28.3672 263.271 27.9512C262.855 27.5351 262.621 26.9711 262.621 26.3827V2.2191C262.621 1.63076 262.855 1.06671 263.271 0.650694C263.687 0.234674 264.251 0.00065542 264.84 -7.62939e-06H270.757C271.346 0.00065542 271.91 0.234674 272.326 0.650694C272.742 1.06671 272.976 1.63076 272.976 2.2191V26.3827C272.976 26.9711 272.742 27.5351 272.326 27.9512C271.91 28.3672 271.346 28.6012 270.757 28.6019Z" fill="#F2F2F2"/>
<path d="M272.73 4.68478H262.867V6.65732H272.73V4.68478Z" fill="#CCCCCC"/>
<path d="M272.73 19.972H262.867V21.9445H272.73V19.972Z" fill="#CCCCCC"/>
<path d="M285.551 28.6019H279.634C279.045 28.6012 278.481 28.3672 278.065 27.9512C277.649 27.5351 277.415 26.9711 277.415 26.3827V2.2191C277.415 1.63076 277.649 1.06671 278.065 0.650694C278.481 0.234674 279.045 0.00065542 279.634 -7.62939e-06H285.551C286.14 0.00065542 286.704 0.234674 287.12 0.650694C287.536 1.06671 287.77 1.63076 287.77 2.2191V26.3827C287.77 26.9711 287.536 27.5351 287.12 27.9512C286.704 28.3672 286.14 28.6012 285.551 28.6019Z" fill="#F2F2F2"/>
<path d="M287.524 4.68478H277.661V6.65732H287.524V4.68478Z" fill="#CCCCCC"/>
<path d="M287.524 19.972H277.661V21.9445H287.524V19.972Z" fill="#CCCCCC"/>
<path d="M300.345 28.6019H294.428C293.839 28.6012 293.275 28.3672 292.859 27.9512C292.443 27.5351 292.209 26.9711 292.209 26.3827V2.2191C292.209 1.63076 292.443 1.06671 292.859 0.650694C293.275 0.234674 293.839 0.00065542 294.428 -7.62939e-06H300.345C300.934 0.00065542 301.498 0.234674 301.914 0.650694C302.33 1.06671 302.564 1.63076 302.564 2.2191V26.3827C302.564 26.9711 302.33 27.5351 301.914 27.9512C301.498 28.3672 300.934 28.6012 300.345 28.6019Z" fill="#F2F2F2"/>
<path d="M302.318 4.68478H292.455V6.65732H302.318V4.68478Z" fill="#CCCCCC"/>
<path d="M302.318 19.972H292.455V21.9445H302.318V19.972Z" fill="#CCCCCC"/>
<path d="M322.507 29.3416H181.965C181.834 29.3416 181.709 29.2896 181.616 29.1971C181.524 29.1046 181.472 28.9792 181.472 28.8484C181.472 28.7176 181.524 28.5922 181.616 28.4997C181.709 28.4072 181.834 28.3553 181.965 28.3553H322.507C322.638 28.3553 322.763 28.4072 322.856 28.4997C322.948 28.5922 323 28.7176 323 28.8484C323 28.9792 322.948 29.1046 322.856 29.1971C322.763 29.2896 322.638 29.3416 322.507 29.3416Z" fill="#CCCCCC"/>
<path d="M322.507 69.2855H181.965C181.834 69.2855 181.709 69.2336 181.616 69.1411C181.524 69.0486 181.472 68.9232 181.472 68.7924C181.472 68.6616 181.524 68.5362 181.616 68.4437C181.709 68.3512 181.834 68.2993 181.965 68.2993H322.507C322.638 68.2993 322.763 68.3512 322.856 68.4437C322.948 68.5362 323 68.6616 323 68.7924C323 68.9232 322.948 69.0486 322.856 69.1411C322.763 69.2336 322.638 69.2855 322.507 69.2855Z" fill="#CCCCCC"/>
<path d="M322.507 109.229H181.965C181.834 109.229 181.709 109.178 181.616 109.085C181.524 108.993 181.472 108.867 181.472 108.736C181.472 108.606 181.524 108.48 181.616 108.388C181.709 108.295 181.834 108.243 181.965 108.243H322.507C322.638 108.243 322.763 108.295 322.856 108.388C322.948 108.48 323 108.606 323 108.736C323 108.867 322.948 108.993 322.856 109.085C322.763 109.178 322.638 109.229 322.507 109.229Z" fill="#CCCCCC"/>
<path d="M286.786 103.767C287.395 97.2055 289.078 90.7887 291.767 84.7727C292.516 83.0985 293.341 81.4612 294.241 79.8607C294.287 79.777 294.298 79.679 294.272 79.5875C294.246 79.4959 294.186 79.4179 294.104 79.3699C294.022 79.3219 293.924 79.3077 293.832 79.3302C293.739 79.3528 293.659 79.4103 293.609 79.4907C290.334 85.32 288.041 91.6479 286.819 98.2211C286.479 100.057 286.224 101.905 286.053 103.767C286.01 104.236 286.743 104.233 286.786 103.767Z" fill="#E6E6E6"/>
<path d="M296.017 81.0363C298.581 81.0363 300.659 78.9578 300.659 76.3938C300.659 73.8297 298.581 71.7512 296.017 71.7512C293.453 71.7512 291.374 73.8297 291.374 76.3938C291.374 78.9578 293.453 81.0363 296.017 81.0363Z" fill="#FF8761"/>
<path d="M287.261 103.89C287.656 99.6335 288.748 95.4707 290.492 91.5678C290.978 90.4817 291.514 89.4194 292.098 88.3811C292.127 88.3268 292.134 88.2633 292.117 88.2039C292.101 88.1445 292.062 88.0939 292.008 88.0628C291.955 88.0316 291.892 88.0224 291.832 88.037C291.772 88.0516 291.72 88.089 291.687 88.1411C289.563 91.9229 288.075 96.028 287.282 100.292C287.062 101.483 286.896 102.683 286.785 103.89C286.757 104.195 287.233 104.193 287.261 103.89Z" fill="#E6E6E6"/>
<path d="M293.249 89.1439C294.913 89.1439 296.261 87.7954 296.261 86.132C296.261 84.4686 294.913 83.1201 293.249 83.1201C291.586 83.1201 290.238 84.4686 290.238 86.132C290.238 87.7954 291.586 89.1439 293.249 89.1439Z" fill="#FF8761"/>
<path d="M286.661 103.606C284.354 100.007 282.655 96.0527 281.63 91.9024C281.345 90.747 281.114 89.5803 280.935 88.4024C280.925 88.3416 280.892 88.2871 280.842 88.2505C280.792 88.2139 280.73 88.198 280.669 88.2062C280.608 88.2145 280.552 88.2461 280.514 88.2945C280.476 88.3429 280.458 88.4043 280.464 88.4657C281.115 92.754 282.467 96.906 284.465 100.756C285.023 101.83 285.63 102.878 286.286 103.898C286.451 104.156 286.825 103.862 286.661 103.606Z" fill="#E6E6E6"/>
<path d="M280.46 88.9324C282.124 88.9324 283.472 87.584 283.472 85.9206C283.472 84.2572 282.124 82.9087 280.46 82.9087C278.797 82.9087 277.448 84.2572 277.448 85.9206C277.448 87.584 278.797 88.9324 280.46 88.9324Z" fill="#FF8761"/>
<path d="M277.415 106.271V100.353C277.415 99.7647 277.649 99.2007 278.065 98.7846C278.481 98.3686 279.045 98.1346 279.634 98.134H293.441C294.03 98.1346 294.594 98.3686 295.01 98.7846C295.426 99.2007 295.66 99.7647 295.66 100.353V106.271C295.66 106.859 295.426 107.423 295.01 107.839C294.594 108.255 294.03 108.489 293.441 108.49H279.634C279.045 108.489 278.481 108.255 278.065 107.839C277.649 107.423 277.415 106.859 277.415 106.271Z" fill="#F2F2F2"/>
<path d="M188.376 179.255H0.49313C0.362344 179.255 0.236921 179.203 0.144442 179.11C0.0519617 179.018 0 178.892 0 178.762C0 178.631 0.0519617 178.505 0.144442 178.413C0.236921 178.32 0.362344 178.268 0.49313 178.268H188.376C188.506 178.268 188.632 178.32 188.724 178.413C188.817 178.505 188.869 178.631 188.869 178.762C188.869 178.892 188.817 179.018 188.724 179.11C188.632 179.203 188.506 179.255 188.376 179.255Z" fill="#3F3D56"/>
<path d="M98.1619 114.654C105.515 114.654 111.476 108.693 111.476 101.339C111.476 93.9858 105.515 88.0247 98.1619 88.0247C90.8085 88.0247 84.8474 93.9858 84.8474 101.339C84.8474 108.693 90.8085 114.654 98.1619 114.654Z" fill="#2F2E41"/>
<path d="M85.5112 186.812L85.1586 180.778L108.27 176.544L108.79 185.452L85.5112 186.812Z" fill="#D5A790"/>
<path d="M86.6308 176.365L87.3112 188.005L79.9825 188.434L78.8738 169.465C79.8362 169.409 80.8002 169.543 81.7109 169.859C82.6216 170.175 83.4611 170.668 84.1814 171.309C84.9017 171.95 85.4887 172.726 85.909 173.593C86.3293 174.461 86.5745 175.403 86.6308 176.365Z" fill="#2F2E41"/>
<path d="M95.5632 186.757L91.7241 191.428L71.8826 178.843L77.5481 171.95L95.5632 186.757Z" fill="#D5A790"/>
<path d="M87.6476 193.667L95.0511 184.66L100.722 189.321L88.6575 204C87.9128 203.388 87.2959 202.635 86.842 201.784C86.3882 200.934 86.1064 200.002 86.0126 199.043C85.9188 198.083 86.015 197.115 86.2955 196.192C86.576 195.27 87.0355 194.412 87.6476 193.667Z" fill="#2F2E41"/>
<path d="M84.5159 165.038L81.8925 177.405C81.8321 177.69 81.8355 177.984 81.9024 178.268C81.9693 178.551 82.0981 178.816 82.2795 179.043C82.4609 179.271 82.6904 179.456 82.9516 179.584C83.2129 179.713 83.4993 179.782 83.7903 179.786L109.58 180.202C109.871 180.207 110.159 180.147 110.424 180.028C110.689 179.908 110.924 179.731 111.113 179.51C111.301 179.289 111.439 179.029 111.515 178.748C111.591 178.468 111.605 178.174 111.554 177.887L109.298 165.104C109.218 164.647 108.979 164.234 108.624 163.936C108.268 163.638 107.82 163.474 107.356 163.474H86.4454C85.9934 163.474 85.555 163.63 85.2038 163.914C84.8525 164.199 84.6097 164.595 84.5159 165.038Z" fill="#2F2E41"/>
<path d="M88.7925 169.392C88.7925 169.392 63.6429 153.612 58.7116 161.995C56.2459 166.187 57.4787 170.255 59.328 173.275C61.0441 176.026 63.5075 178.231 66.4303 179.633L86.82 189.611L94.2169 181.72L89.2856 177.282L88.7925 169.392Z" fill="#2F2E41"/>
<path d="M101.614 166.926C101.614 166.926 134.16 157.557 127.75 175.31C121.339 193.062 97.1757 186.159 97.1757 186.159L94.7101 178.762L103.093 172.844L101.614 166.926Z" fill="#2F2E41"/>
<path d="M98.3289 116.492C105.018 116.492 110.441 111.069 110.441 104.38C110.441 97.6904 105.018 92.2678 98.3289 92.2678C91.6398 92.2678 86.2172 97.6904 86.2172 104.38C86.2172 111.069 91.6398 116.492 98.3289 116.492Z" fill="#D5A790"/>
<path d="M98.9635 168.883C93.9307 168.807 88.9237 168.148 84.0428 166.918L83.8986 166.878L77.14 135.789C76.532 133.057 76.9454 130.197 78.3021 127.749C79.6588 125.301 81.865 123.434 84.5038 122.502C92.6552 119.577 101.54 119.4 109.801 121.997H109.801C112.573 122.89 114.907 124.796 116.336 127.333C117.765 129.871 118.185 132.855 117.511 135.688L109.962 166.852L109.856 166.903C106.719 168.389 102.796 168.883 98.9635 168.883Z" fill="#CCCCCC"/>
<path d="M89.885 171.299C90.1304 170.616 90.5224 169.996 91.0334 169.482C91.5444 168.968 92.1619 168.572 92.8425 168.322C93.523 168.072 94.2501 167.975 94.9724 168.037C95.6947 168.098 96.3948 168.318 97.0232 168.679L110.331 157.128L111.535 166.205L98.7131 175.783C98.036 176.799 97.0098 177.53 95.8292 177.84C94.6485 178.149 93.3954 178.015 92.3072 177.462C91.219 176.909 90.3714 175.977 89.9249 174.841C89.4785 173.705 89.4643 172.444 89.885 171.299Z" fill="#D5A790"/>
<path d="M102.577 173.818C102.36 173.818 102.145 173.786 101.938 173.724C101.601 173.626 101.293 173.449 101.038 173.207C100.784 172.966 100.592 172.667 100.477 172.335L98.8705 167.784C98.7202 167.364 98.7011 166.908 98.8157 166.476C98.9304 166.044 99.1735 165.657 99.5127 165.367L117.645 154.481L110.497 122.595L110.679 122.551C110.753 122.533 118.076 120.866 121.077 128.868C123.178 134.473 130.955 146.659 130.406 154.894C130.302 156.541 129.646 158.105 128.543 159.334C127.441 160.562 125.956 161.383 124.33 161.664L103.92 173.357C103.536 173.655 103.063 173.817 102.577 173.818Z" fill="#CCCCCC"/>
<path d="M104.611 170.217C104.365 169.535 103.973 168.915 103.462 168.4C102.951 167.886 102.334 167.49 101.653 167.241C100.972 166.991 100.245 166.893 99.5231 166.955C98.8008 167.017 98.1008 167.236 97.4723 167.597L84.1645 156.046L82.9604 165.124L95.7824 174.701C96.4596 175.717 97.4857 176.449 98.6663 176.758C99.847 177.068 101.1 176.933 102.188 176.38C103.277 175.828 104.124 174.895 104.571 173.759C105.017 172.623 105.031 171.363 104.611 170.217Z" fill="#D5A790"/>
<path d="M93.2537 173.818C92.7673 173.817 92.2949 173.655 91.9105 173.357L70.0214 162.65C68.3949 162.369 66.9106 161.548 65.8081 160.32C64.7056 159.092 64.0493 157.528 63.945 155.88C63.3964 147.645 72.6525 134.473 74.7539 128.868C77.7546 120.866 85.0779 122.532 85.1519 122.551L85.3337 122.595L76.7068 155.468L96.318 165.367C96.6573 165.657 96.9003 166.044 97.015 166.476C97.1297 166.908 97.1105 167.364 96.9602 167.784L95.3539 172.335C95.239 172.667 95.0464 172.966 94.7923 173.207C94.5381 173.449 94.2298 173.626 93.893 173.724C93.6856 173.786 93.4703 173.818 93.2537 173.818Z" fill="#CCCCCC"/>
<path d="M119.367 178.762H75.478C74.5629 178.76 73.6855 178.396 73.0383 177.749C72.3912 177.102 72.0272 176.225 72.0261 175.31V151.146C72.0272 150.231 72.3912 149.353 73.0383 148.706C73.6855 148.059 74.5629 147.695 75.478 147.694H119.367C120.282 147.695 121.159 148.059 121.806 148.706C122.453 149.353 122.817 150.231 122.819 151.146V175.31C122.817 176.225 122.453 177.102 121.806 177.749C121.159 178.396 120.282 178.76 119.367 178.762Z" fill="#FF8761"/>
<path d="M97.4223 166.187C99.0564 166.187 100.381 164.862 100.381 163.228C100.381 161.594 99.0564 160.269 97.4223 160.269C95.7882 160.269 94.4635 161.594 94.4635 163.228C94.4635 164.862 95.7882 166.187 97.4223 166.187Z" fill="white"/>
<path d="M86.0959 103.887C85.378 102.066 86.5558 99.896 88.303 99.014C90.0501 98.132 92.1585 98.2998 94.0273 98.8811C95.5979 99.3696 97.0698 100.127 98.602 100.725C100.113 101.394 101.763 101.688 103.411 101.581C105.046 101.397 106.672 100.48 107.341 98.9774C108.034 97.4198 107.563 95.519 106.495 94.1897C105.36 92.9045 103.89 91.9597 102.249 91.4602C98.6452 90.1907 94.4828 90.1536 91.1374 91.999C87.792 93.8444 85.5185 97.7737 86.21 101.531" fill="#2F2E41"/>
<path d="M16.1068 173.494C16.7161 166.933 18.3988 160.516 21.0877 154.5C21.8371 152.826 22.662 151.188 23.5623 149.588C23.6074 149.504 23.6183 149.406 23.5926 149.315C23.5669 149.223 23.5067 149.145 23.4246 149.097C23.3425 149.049 23.2449 149.035 23.1525 149.057C23.0601 149.08 22.9801 149.138 22.9293 149.218C19.6553 155.047 17.3616 161.375 16.14 167.948C15.8002 169.784 15.5448 171.633 15.3738 173.494C15.3304 173.964 16.0637 173.961 16.1068 173.494Z" fill="#E6E6E6"/>
<path d="M25.3377 150.764C27.9017 150.764 29.9802 148.685 29.9802 146.121C29.9802 143.557 27.9017 141.478 25.3377 141.478C22.7737 141.478 20.6952 143.557 20.6952 146.121C20.6952 148.685 22.7737 150.764 25.3377 150.764Z" fill="#FF8761"/>
<path d="M16.5817 173.617C16.977 169.361 18.0686 165.198 19.813 161.295C20.2992 160.209 20.8344 159.147 21.4184 158.108C21.4477 158.054 21.4548 157.991 21.4381 157.931C21.4214 157.872 21.3823 157.821 21.3291 157.79C21.2758 157.759 21.2125 157.75 21.1526 157.764C21.0927 157.779 21.0408 157.816 21.0078 157.868C18.8838 161.65 17.3958 165.755 16.6033 170.02C16.3828 171.211 16.2171 172.41 16.1062 173.617C16.078 173.922 16.5537 173.92 16.5817 173.617H16.5817Z" fill="#E6E6E6"/>
<path d="M22.5702 158.871C24.2336 158.871 25.582 157.523 25.582 155.859C25.582 154.196 24.2336 152.847 22.5702 152.847C20.9068 152.847 19.5583 154.196 19.5583 155.859C19.5583 157.523 20.9068 158.871 22.5702 158.871Z" fill="#FF8761"/>
<path d="M15.9815 173.333C13.6751 169.734 11.9754 165.78 10.9504 161.63C10.6657 160.474 10.4344 159.308 10.2563 158.13C10.246 158.069 10.2125 158.014 10.1628 157.978C10.1131 157.941 10.0511 157.925 9.98997 157.933C9.92881 157.942 9.87325 157.973 9.83498 158.022C9.79672 158.07 9.77874 158.132 9.78487 158.193C10.4361 162.481 11.7877 166.633 13.7857 170.483C14.3443 171.558 14.9512 172.605 15.6066 173.626C15.7717 173.883 16.1456 173.589 15.9815 173.333Z" fill="#E6E6E6"/>
<path d="M9.78111 158.66C11.4445 158.66 12.7929 157.311 12.7929 155.648C12.7929 153.984 11.4445 152.636 9.78111 152.636C8.11772 152.636 6.76929 153.984 6.76929 155.648C6.76929 157.311 8.11772 158.66 9.78111 158.66Z" fill="#FF8761"/>
<path d="M6.73547 175.998V170.08C6.73614 169.492 6.97015 168.928 7.38617 168.512C7.80218 168.096 8.36622 167.862 8.95456 167.861H22.7622C23.3505 167.862 23.9146 168.096 24.3306 168.512C24.7466 168.928 24.9806 169.492 24.9813 170.08V175.998C24.9806 176.586 24.7466 177.15 24.3306 177.566C23.9146 177.982 23.3505 178.216 22.7622 178.217H8.95456C8.36622 178.216 7.80218 177.982 7.38617 177.566C6.97015 177.15 6.73614 176.586 6.73547 175.998Z" fill="#F2F2F2"/>
<path d="M155.044 182.904C155.044 186.148 152.415 187.622 149.172 187.622C145.928 187.622 143.299 186.148 143.299 182.904C143.299 179.661 144.604 175.876 149.172 177.181C153.739 175.224 155.044 179.661 155.044 182.904Z" fill="#FA3C00"/>
<path d="M148.886 178.701C148.657 178.701 148.437 178.618 148.265 178.468C148.093 178.317 147.982 178.109 147.953 177.883C147.759 176.265 146.687 173.095 146.235 171.808L146.235 171.808C146.189 171.68 146.175 171.542 146.194 171.408C146.213 171.273 146.265 171.145 146.344 171.035C146.419 170.936 146.515 170.855 146.625 170.796C146.734 170.737 146.855 170.702 146.979 170.693C147.103 170.684 147.228 170.701 147.345 170.744C147.461 170.787 147.568 170.853 147.657 170.94C147.737 171.024 147.798 171.123 147.838 171.231C147.878 171.339 147.895 171.455 147.888 171.57C147.8 173.222 149.004 175.892 149.73 177.337C149.798 177.473 149.833 177.624 149.83 177.776C149.827 177.928 149.788 178.078 149.715 178.212C149.641 178.345 149.537 178.459 149.41 178.544C149.283 178.628 149.137 178.68 148.985 178.696C148.952 178.699 148.919 178.701 148.886 178.701Z" fill="#3F3D56"/>
<path d="M153.231 175.056C155.27 173.387 153.67 169.973 151.119 170.628C150.776 170.71 150.459 170.879 150.2 171.119C148.635 172.597 148.392 176.38 148.392 176.38C148.392 176.38 151.156 176.754 153.231 175.056Z" fill="#3F3D56"/>
</g>
<defs>
<clipPath id="clip0_39:112">
<path d="M0 0H293C309.569 0 323 13.4315 323 30V204H30C13.4315 204 0 190.569 0 174V0Z" fill="white"/>
</clipPath>
</defs>
</svg>
