<svg width="362" height="253" viewBox="0 0 362 253" fill="none" xmlns="http://www.w3.org/2000/svg">
<g clip-path="url(#clip0_29:130)">
<path d="M91.1704 136.419C95.147 136.419 98.3708 133.199 98.3708 129.226C98.3708 125.254 95.147 122.034 91.1704 122.034C87.1937 122.034 83.9699 125.254 83.9699 129.226C83.9699 133.199 87.1937 136.419 91.1704 136.419Z" fill="#F2F2F2"/>
<path d="M66.5285 216.517C68.993 216.517 70.991 214.521 70.991 212.059C70.991 209.597 68.993 207.601 66.5285 207.601C64.064 207.601 62.066 209.597 62.066 212.059C62.066 214.521 64.064 216.517 66.5285 216.517Z" fill="#F2F2F2"/>
<path d="M203.392 9.29187H148.632V10.0741H203.392V9.29187Z" fill="#F2F2F2"/>
<path d="M164.278 2.25891H163.496V9.48724H164.278V2.25891Z" fill="#F2F2F2"/>
<path d="M188.138 2.25891H187.355V9.48724H188.138V2.25891Z" fill="#F2F2F2"/>
<path d="M291.79 198.401H237.03V199.183H291.79V198.401Z" fill="#F2F2F2"/>
<path d="M252.676 191.368H251.894V198.596H252.676V191.368Z" fill="#F2F2F2"/>
<path d="M276.536 191.368H275.753V198.596H276.536V191.368Z" fill="#F2F2F2"/>
<path d="M294.528 79.2308H239.768V80.0131H294.528V79.2308Z" fill="#F2F2F2"/>
<path d="M255.414 72.1979H254.632V79.4262H255.414V72.1979Z" fill="#F2F2F2"/>
<path d="M279.274 72.1979H278.491V79.4262H279.274V72.1979Z" fill="#F2F2F2"/>
<path d="M294.528 51.099H239.768V51.8813H294.528V51.099Z" fill="#F2F2F2"/>
<path d="M255.414 44.066H254.632V51.2944H255.414V44.066Z" fill="#F2F2F2"/>
<path d="M279.274 44.066H278.491V51.2944H279.274V44.066Z" fill="#F2F2F2"/>
<path d="M174.448 55.0061H119.688V55.7884H174.448V55.0061Z" fill="#F2F2F2"/>
<path d="M135.334 47.9731H134.551V55.2015H135.334V47.9731Z" fill="#F2F2F2"/>
<path d="M159.193 47.9731H158.411V55.2015H159.193V47.9731Z" fill="#F2F2F2"/>
<path d="M134.551 36.6423H79.7916V37.4246H134.551V36.6423Z" fill="#F2F2F2"/>
<path d="M95.4373 29.6094H94.655V36.8377H95.4373V29.6094Z" fill="#F2F2F2"/>
<path d="M119.297 29.6094H118.515V36.8377H119.297V29.6094Z" fill="#F2F2F2"/>
<path d="M109.91 108.926H55.1497V109.708H109.91V108.926Z" fill="#F2F2F2"/>
<path d="M70.7953 101.893H70.0131V109.121H70.7953V101.893Z" fill="#F2F2F2"/>
<path d="M94.655 101.893H93.8727V109.121H94.655V101.893Z" fill="#F2F2F2"/>
<path d="M82.5296 188.633H27.7698V189.415H82.5296V188.633Z" fill="#F2F2F2"/>
<path d="M43.4155 181.6H42.6332V188.828H43.4155V181.6Z" fill="#F2F2F2"/>
<path d="M67.2751 181.6H66.4928V188.828H67.2751V181.6Z" fill="#F2F2F2"/>
<path d="M341.465 155.812H286.705V156.594H341.465V155.812Z" fill="#F2F2F2"/>
<path d="M302.351 148.779H301.569V156.007H302.351V148.779Z" fill="#F2F2F2"/>
<path d="M326.211 148.779H325.428V156.007H326.211V148.779Z" fill="#F2F2F2"/>
<path d="M325.428 105.8H270.668V106.582H325.428V105.8Z" fill="#F2F2F2"/>
<path d="M310.565 106.386H309.783V113.614H310.565V106.386Z" fill="#F2F2F2"/>
<path d="M286.705 106.386H285.923V113.614H286.705V106.386Z" fill="#F2F2F2"/>
<path d="M60.2346 47.1918H5.47479V47.9741H60.2346V47.1918Z" fill="#F2F2F2"/>
<path d="M45.3712 47.7778H44.5889V55.0062H45.3712V47.7778Z" fill="#F2F2F2"/>
<path d="M21.5116 47.7778H20.7293V55.0062H21.5116V47.7778Z" fill="#F2F2F2"/>
<path d="M63.7548 149.561H8.99506V150.343H63.7548V149.561Z" fill="#F2F2F2"/>
<path d="M48.8915 150.147H48.1092V157.375H48.8915V150.147Z" fill="#F2F2F2"/>
<path d="M25.0319 150.147H24.2496V157.375H25.0319V150.147Z" fill="#F2F2F2"/>
<path d="M236.248 21.7949H181.488V22.5772H236.248V21.7949Z" fill="#F2F2F2"/>
<path d="M221.385 22.381H220.602V29.6093H221.385V22.381Z" fill="#F2F2F2"/>
<path d="M197.525 22.381H196.743V29.6093H197.525V22.381Z" fill="#F2F2F2"/>
<path d="M82.5296 76.1051H27.7698V76.8874H82.5296V76.1051Z" fill="#F2F2F2"/>
<path d="M43.4155 69.0721H42.6332V76.3005H43.4155V69.0721Z" fill="#F2F2F2"/>
<path d="M67.2751 69.0721H66.4928V76.3005H67.2751V69.0721Z" fill="#F2F2F2"/>
<path d="M91.3303 68.486V252.515H261.868V68.486H91.3303ZM176.599 81.7705C175.439 81.7705 174.304 81.4267 173.34 80.7827C172.375 80.1387 171.623 79.2234 171.179 78.1525C170.735 77.0816 170.618 75.9032 170.845 74.7663C171.071 73.6294 171.63 72.5851 172.45 71.7654C173.271 70.9458 174.316 70.3876 175.454 70.1615C176.593 69.9353 177.772 70.0514 178.844 70.495C179.916 70.9386 180.833 71.6898 181.477 72.6536C182.122 73.6174 182.466 74.7505 182.466 75.9097C182.466 77.464 181.848 78.9548 180.748 80.0539C179.647 81.153 178.155 81.7705 176.599 81.7705Z" fill="#3F3D56"/>
<path d="M14.5719 236.807C17.2763 246.794 26.5392 252.978 26.5392 252.978C26.5392 252.978 31.4176 242.972 28.7133 232.986C26.0089 223 16.746 216.815 16.746 216.815C16.746 216.815 11.8676 226.821 14.5719 236.807Z" fill="#3F3D56"/>
<path d="M18.5458 234.661C25.9666 241.877 26.8729 252.97 26.8729 252.97C26.8729 252.97 15.7479 252.363 8.32715 245.147C0.90639 237.931 0 226.839 0 226.839C0 226.839 11.125 227.445 18.5458 234.661Z" fill="#FF8761"/>
<path d="M362 252.125H6.45264V252.907H362V252.125Z" fill="#3F3D56"/>
<path d="M75.0979 228.032C75.0958 226.301 74.5709 224.61 73.5918 223.181C72.6127 221.752 71.2249 220.651 69.6098 220.022C71.4806 219.296 73.0384 217.94 74.0137 216.187C74.989 214.435 75.3204 212.397 74.9506 210.426C74.5807 208.456 73.5329 206.676 71.9884 205.396C70.4439 204.115 68.5 203.414 66.4928 203.414C64.4857 203.414 62.5417 204.115 60.9972 205.396C59.4527 206.676 58.4049 208.456 58.0351 210.426C57.6652 212.397 57.9966 214.435 58.9719 216.187C59.9472 217.94 61.505 219.296 63.3759 220.022C61.7595 220.649 60.3705 221.75 59.3911 223.179C58.4118 224.608 57.8877 226.3 57.8877 228.032C57.8877 229.764 58.4118 231.456 59.3911 232.885C60.3705 234.315 61.7595 235.415 63.3759 236.042C61.505 236.768 59.9472 238.125 58.9719 239.877C57.9966 241.63 57.6652 243.667 58.0351 245.638C58.4049 247.609 59.4527 249.388 60.9972 250.669C62.5417 251.949 64.4857 252.65 66.4928 252.65C68.5 252.65 70.4439 251.949 71.9884 250.669C73.5329 249.388 74.5807 247.609 74.9506 245.638C75.3204 243.667 74.989 241.63 74.0137 239.877C73.0384 238.125 71.4806 236.768 69.6098 236.042C71.2249 235.413 72.6127 234.312 73.5918 232.883C74.5709 231.455 75.0958 229.764 75.0979 228.032ZM58.67 212.013C58.6688 210.542 59.0827 209.102 59.8643 207.856C60.6459 206.61 61.7634 205.61 63.0885 204.97C64.4136 204.331 65.8925 204.077 67.3553 204.239C68.818 204.401 70.2054 204.972 71.3579 205.887C72.5104 206.801 73.3813 208.021 73.8706 209.408C74.3599 210.795 74.4478 212.291 74.124 213.725C73.8003 215.159 73.0781 216.473 72.0405 217.516C71.0028 218.558 69.6918 219.287 68.258 219.619C67.0938 219.375 65.8918 219.375 64.7276 219.619C63.0071 219.219 61.4724 218.25 60.3727 216.87C59.273 215.489 58.6729 213.777 58.67 212.013ZM74.3157 244.052C74.3169 245.522 73.9029 246.963 73.1213 248.208C72.3397 249.454 71.2222 250.454 69.8971 251.094C68.572 251.734 67.0932 251.987 65.6304 251.825C64.1676 251.663 62.7803 251.092 61.6278 250.178C60.4753 249.263 59.6043 248.043 59.115 246.656C58.6257 245.27 58.5379 243.774 58.8616 242.339C59.1853 240.905 59.9075 239.591 60.9452 238.549C61.9828 237.506 63.2938 236.777 64.7276 236.445C65.8918 236.689 67.0938 236.689 68.258 236.445C69.9785 236.845 71.5133 237.814 72.613 239.195C73.7126 240.576 74.3127 242.287 74.3157 244.052ZM68.258 235.638C67.0938 235.395 65.8918 235.395 64.7276 235.638C63.0057 235.242 61.4693 234.273 60.3691 232.892C59.269 231.511 58.67 229.797 58.67 228.032C58.67 226.267 59.269 224.554 60.3691 223.172C61.4693 221.791 63.0057 220.823 64.7276 220.426C65.8918 220.669 67.0938 220.669 68.258 220.426C69.9799 220.823 71.5163 221.791 72.6165 223.172C73.7167 224.554 74.3156 226.267 74.3156 228.032C74.3156 229.797 73.7167 231.511 72.6165 232.892C71.5163 234.273 69.9799 235.242 68.258 235.638Z" fill="#3F3D56"/>
<path d="M199.872 106.972H110.301C109.574 106.972 108.878 106.684 108.365 106.171C107.851 105.658 107.563 104.962 107.563 104.237C107.563 103.512 107.851 102.816 108.365 102.303C108.878 101.79 109.574 101.502 110.301 101.502H199.872C200.598 101.502 201.294 101.79 201.808 102.303C202.321 102.816 202.61 103.512 202.61 104.237C202.61 104.962 202.321 105.658 201.808 106.171C201.294 106.684 200.598 106.972 199.872 106.972Z" fill="#F2F2F2"/>
<path d="M199.872 135.104H110.301C109.574 135.104 108.878 134.816 108.365 134.303C107.851 133.79 107.563 133.094 107.563 132.369C107.563 131.643 107.851 130.948 108.365 130.435C108.878 129.922 109.574 129.634 110.301 129.634H199.872C200.598 129.634 201.294 129.922 201.808 130.435C202.321 130.948 202.61 131.643 202.61 132.369C202.61 133.094 202.321 133.79 201.808 134.303C201.294 134.816 200.598 135.104 199.872 135.104Z" fill="#F2F2F2"/>
<path d="M199.872 163.236H110.301C109.574 163.236 108.878 162.948 108.365 162.435C107.851 161.922 107.563 161.226 107.563 160.501C107.563 159.775 107.851 159.08 108.365 158.567C108.878 158.054 109.574 157.766 110.301 157.766H199.872C200.598 157.766 201.294 158.054 201.808 158.567C202.321 159.08 202.61 159.775 202.61 160.501C202.61 161.226 202.321 161.922 201.808 162.435C201.294 162.948 200.598 163.236 199.872 163.236Z" fill="#F2F2F2"/>
<path d="M199.872 191.368H110.301C109.574 191.368 108.878 191.08 108.365 190.567C107.851 190.054 107.563 189.358 107.563 188.633C107.563 187.907 107.851 187.212 108.365 186.699C108.878 186.186 109.574 185.898 110.301 185.898H199.872C200.598 185.898 201.294 186.186 201.808 186.699C202.321 187.212 202.61 187.907 202.61 188.633C202.61 189.358 202.321 190.054 201.808 190.567C201.294 191.08 200.598 191.368 199.872 191.368Z" fill="#F2F2F2"/>
<path d="M199.872 219.5H110.301C109.574 219.5 108.878 219.211 108.365 218.698C107.851 218.186 107.563 217.49 107.563 216.764C107.563 216.039 107.851 215.343 108.365 214.831C108.878 214.318 109.574 214.029 110.301 214.029H199.872C200.598 214.029 201.294 214.318 201.808 214.831C202.321 215.343 202.61 216.039 202.61 216.764C202.61 217.49 202.321 218.186 201.808 218.698C201.294 219.211 200.598 219.5 199.872 219.5Z" fill="#F2F2F2"/>
<path d="M184.226 106.972H109.909C109.183 106.972 108.487 106.684 107.973 106.171C107.46 105.658 107.172 104.962 107.172 104.237C107.172 103.512 107.46 102.816 107.973 102.303C108.487 101.79 109.183 101.502 109.909 101.502H184.226C184.952 101.502 185.649 101.79 186.162 102.303C186.676 102.816 186.964 103.512 186.964 104.237C186.964 104.962 186.676 105.658 186.162 106.171C185.649 106.684 184.952 106.972 184.226 106.972Z" fill="#FF8761"/>
<path d="M161.149 135.104H109.909C109.183 135.104 108.487 134.816 107.973 134.303C107.46 133.79 107.172 133.094 107.172 132.369C107.172 131.643 107.46 130.948 107.973 130.435C108.487 129.922 109.183 129.634 109.909 129.634H161.149C161.875 129.634 162.572 129.922 163.085 130.435C163.599 130.948 163.887 131.643 163.887 132.369C163.887 133.094 163.599 133.79 163.085 134.303C162.572 134.816 161.875 135.104 161.149 135.104Z" fill="#FF8761"/>
<path d="M132.987 163.236H109.909C109.183 163.236 108.487 162.948 107.973 162.435C107.46 161.922 107.172 161.226 107.172 160.501C107.172 159.775 107.46 159.08 107.973 158.567C108.487 158.054 109.183 157.766 109.909 157.766H132.987C133.713 157.766 134.409 158.054 134.923 158.567C135.436 159.08 135.725 159.775 135.725 160.501C135.725 161.226 135.436 161.922 134.923 162.435C134.409 162.948 133.713 163.236 132.987 163.236Z" fill="#FF8761"/>
<path d="M191.267 191.368H109.909C109.183 191.368 108.487 191.08 107.973 190.567C107.46 190.054 107.172 189.358 107.172 188.633C107.172 187.907 107.46 187.212 107.973 186.699C108.487 186.186 109.183 185.898 109.909 185.898H191.267C191.993 185.898 192.689 186.186 193.203 186.699C193.716 187.212 194.005 187.907 194.005 188.633C194.005 189.358 193.716 190.054 193.203 190.567C192.689 191.08 191.993 191.368 191.267 191.368Z" fill="#FF8761"/>
<path d="M173.274 219.5H109.909C109.183 219.5 108.487 219.211 107.973 218.698C107.46 218.186 107.172 217.49 107.172 216.764C107.172 216.039 107.46 215.343 107.973 214.831C108.487 214.318 109.183 214.029 109.909 214.029H173.274C174.001 214.029 174.697 214.318 175.21 214.831C175.724 215.343 176.012 216.039 176.012 216.764C176.012 217.49 175.724 218.186 175.21 218.698C174.697 219.211 174.001 219.5 173.274 219.5Z" fill="#FF8761"/>
<path d="M237.03 101.502H236.248V106.972H237.03V101.502Z" fill="#FF8761"/>
<path d="M242.897 107.363C242.279 107.363 241.674 107.179 241.159 106.836C240.644 106.492 240.243 106.004 240.007 105.433C239.77 104.862 239.708 104.234 239.828 103.627C239.949 103.021 240.247 102.464 240.685 102.027C241.122 101.59 241.68 101.292 242.287 101.171C242.894 101.051 243.523 101.113 244.095 101.349C244.667 101.586 245.155 101.986 245.499 102.5C245.843 103.014 246.027 103.619 246.027 104.237C246.026 105.066 245.696 105.86 245.109 106.446C244.522 107.032 243.727 107.362 242.897 107.363ZM242.897 101.893C242.433 101.893 241.98 102.03 241.594 102.288C241.208 102.545 240.907 102.911 240.729 103.34C240.552 103.768 240.505 104.24 240.596 104.694C240.686 105.149 240.91 105.567 241.238 105.895C241.566 106.223 241.984 106.446 242.44 106.536C242.895 106.627 243.367 106.58 243.796 106.403C244.224 106.225 244.591 105.925 244.849 105.539C245.107 105.154 245.244 104.701 245.244 104.237C245.244 103.615 244.996 103.02 244.556 102.58C244.116 102.141 243.52 101.893 242.897 101.893Z" fill="#FF8761"/>
<path d="M237.03 129.634H236.248V135.104H237.03V129.634Z" fill="#FF8761"/>
<path d="M242.897 135.495C242.279 135.495 241.674 135.311 241.159 134.968C240.644 134.624 240.243 134.136 240.007 133.565C239.77 132.994 239.708 132.365 239.828 131.759C239.949 131.153 240.247 130.596 240.685 130.159C241.122 129.721 241.68 129.424 242.287 129.303C242.894 129.182 243.523 129.244 244.095 129.481C244.667 129.718 245.155 130.118 245.499 130.632C245.843 131.146 246.027 131.751 246.027 132.369C246.026 133.198 245.696 133.992 245.109 134.578C244.522 135.164 243.727 135.494 242.897 135.495ZM242.897 130.024C242.433 130.024 241.98 130.162 241.594 130.42C241.208 130.677 240.907 131.043 240.729 131.472C240.552 131.9 240.505 132.371 240.596 132.826C240.686 133.281 240.91 133.699 241.238 134.027C241.566 134.354 241.984 134.578 242.44 134.668C242.895 134.759 243.367 134.712 243.796 134.535C244.224 134.357 244.591 134.057 244.849 133.671C245.107 133.286 245.244 132.832 245.244 132.369C245.244 131.747 244.996 131.151 244.556 130.712C244.116 130.272 243.52 130.025 242.897 130.024Z" fill="#FF8761"/>
<path d="M237.03 157.766H236.248V163.236H237.03V157.766Z" fill="#FF8761"/>
<path d="M242.897 163.627C242.279 163.627 241.674 163.443 241.159 163.1C240.644 162.756 240.243 162.268 240.007 161.697C239.77 161.126 239.708 160.497 239.828 159.891C239.949 159.285 240.247 158.728 240.685 158.291C241.122 157.853 241.68 157.556 242.287 157.435C242.894 157.314 243.523 157.376 244.095 157.613C244.667 157.85 245.155 158.25 245.499 158.764C245.843 159.278 246.027 159.883 246.027 160.501C246.026 161.329 245.696 162.124 245.109 162.71C244.522 163.296 243.727 163.626 242.897 163.627ZM242.897 158.156C242.433 158.156 241.98 158.294 241.594 158.552C241.208 158.809 240.907 159.175 240.729 159.604C240.552 160.032 240.505 160.503 240.596 160.958C240.686 161.413 240.91 161.831 241.238 162.158C241.566 162.486 241.984 162.71 242.44 162.8C242.895 162.89 243.367 162.844 243.796 162.667C244.224 162.489 244.591 162.189 244.849 161.803C245.107 161.418 245.244 160.964 245.244 160.501C245.244 159.879 244.996 159.283 244.556 158.844C244.116 158.404 243.52 158.157 242.897 158.156Z" fill="#FF8761"/>
<path d="M237.03 185.898H236.248V191.368H237.03V185.898Z" fill="#FF8761"/>
<path d="M242.897 191.758C242.279 191.758 241.674 191.575 241.159 191.232C240.644 190.888 240.243 190.4 240.007 189.829C239.77 189.258 239.708 188.629 239.828 188.023C239.949 187.416 240.247 186.859 240.685 186.422C241.122 185.985 241.68 185.688 242.287 185.567C242.894 185.446 243.523 185.508 244.095 185.745C244.667 185.981 245.155 186.382 245.499 186.896C245.843 187.41 246.027 188.014 246.027 188.633C246.026 189.461 245.696 190.256 245.109 190.842C244.522 191.428 243.727 191.757 242.897 191.758ZM242.897 186.288C242.433 186.288 241.98 186.426 241.594 186.683C241.208 186.941 240.907 187.307 240.729 187.735C240.552 188.164 240.505 188.635 240.596 189.09C240.686 189.545 240.91 189.962 241.238 190.29C241.566 190.618 241.984 190.841 242.44 190.932C242.895 191.022 243.367 190.976 243.796 190.799C244.224 190.621 244.591 190.321 244.849 189.935C245.107 189.55 245.244 189.096 245.244 188.633C245.244 188.011 244.996 187.415 244.556 186.976C244.116 186.536 243.52 186.289 242.897 186.288Z" fill="#FF8761"/>
<path d="M237.03 214.029H236.248V219.5H237.03V214.029Z" fill="#FF8761"/>
<path d="M242.897 219.89C242.279 219.89 241.674 219.707 241.159 219.363C240.644 219.02 240.243 218.532 240.007 217.961C239.77 217.389 239.708 216.761 239.828 216.155C239.949 215.548 240.247 214.991 240.685 214.554C241.122 214.117 241.68 213.819 242.287 213.699C242.894 213.578 243.523 213.64 244.095 213.877C244.667 214.113 245.155 214.514 245.499 215.028C245.843 215.542 246.027 216.146 246.027 216.764C246.026 217.593 245.696 218.388 245.109 218.974C244.522 219.56 243.727 219.889 242.897 219.89ZM242.897 214.42C242.433 214.42 241.98 214.558 241.594 214.815C241.208 215.073 240.907 215.439 240.729 215.867C240.552 216.296 240.505 216.767 240.596 217.222C240.686 217.677 240.91 218.094 241.238 218.422C241.566 218.75 241.984 218.973 242.44 219.064C242.895 219.154 243.367 219.108 243.796 218.93C244.224 218.753 244.591 218.452 244.849 218.067C245.107 217.681 245.244 217.228 245.244 216.764C245.244 216.143 244.996 215.547 244.556 215.108C244.116 214.668 243.52 214.421 242.897 214.42Z" fill="#FF8761"/>
<path d="M242.897 105.8C243.762 105.8 244.462 105.1 244.462 104.237C244.462 103.374 243.762 102.674 242.897 102.674C242.033 102.674 241.333 103.374 241.333 104.237C241.333 105.1 242.033 105.8 242.897 105.8Z" fill="#FF8761"/>
<path d="M242.897 190.195C243.762 190.195 244.462 189.496 244.462 188.633C244.462 187.769 243.762 187.07 242.897 187.07C242.033 187.07 241.333 187.769 241.333 188.633C241.333 189.496 242.033 190.195 242.897 190.195Z" fill="#FF8761"/>
<path d="M242.897 218.327C243.762 218.327 244.462 217.628 244.462 216.765C244.462 215.901 243.762 215.202 242.897 215.202C242.033 215.202 241.333 215.901 241.333 216.765C241.333 217.628 242.033 218.327 242.897 218.327Z" fill="#FF8761"/>
<path d="M176.599 78.6448C178.111 78.6448 179.337 77.4202 179.337 75.9097C179.337 74.3992 178.111 73.1747 176.599 73.1747C175.087 73.1747 173.861 74.3992 173.861 75.9097C173.861 77.4202 175.087 78.6448 176.599 78.6448Z" fill="#3F3D56"/>
<path d="M176.599 6.36145C178.111 6.36145 179.337 5.13693 179.337 3.6264C179.337 2.11588 178.111 0.891357 176.599 0.891357C175.087 0.891357 173.861 2.11588 173.861 3.6264C173.861 5.13693 175.087 6.36145 176.599 6.36145Z" fill="#3F3D56"/>
<path d="M176.99 3.62634H176.208V75.9097H176.99V3.62634Z" fill="#3F3D56"/>
<path d="M335.057 151.115V160.795C335.057 160.795 337.39 176.391 337.39 190.015C337.39 203.638 333.621 235.368 333.621 235.368C333.621 235.368 326.084 238.056 325.546 233.934C325.007 229.811 323.572 207.941 323.572 204.714C323.572 201.487 317.291 176.929 317.291 176.929L313.343 204.176C313.343 204.176 314.599 236.443 313.343 237.339C312.087 238.236 305.985 239.849 305.268 238.236C304.55 236.622 300.781 202.025 300.781 202.025C300.781 202.025 297.731 156.852 299.525 154.163C301.32 151.474 302.935 149.323 302.935 149.323C302.935 149.323 328.597 143.048 335.057 151.115Z" fill="#2F2E41"/>
<path d="M332.724 234.292L333.174 237.214C333.325 238.211 333.423 239.215 333.468 240.222C333.538 241.69 333.783 243.952 334.62 244.31C335.876 244.848 344.03 251.717 338.287 252.075C332.544 252.434 329.672 253.053 327.971 251.734C325.96 250.174 328.238 250.88 327.34 250.88C326.443 250.88 325.366 250.88 325.007 249.446C324.649 248.012 325.546 245.503 325.546 245.503V234.292H332.724Z" fill="#2F2E41"/>
<path d="M305.929 234.152L305.479 237.074C305.328 238.071 305.23 239.075 305.185 240.082C305.115 241.55 304.871 243.811 304.033 244.17C302.777 244.708 294.624 251.576 300.366 251.935C306.109 252.293 308.982 252.913 310.682 251.594C312.693 250.034 310.416 250.74 311.313 250.74C312.21 250.74 313.287 250.74 313.646 249.306C314.005 247.872 313.107 245.362 313.107 245.362V234.152H305.929Z" fill="#2F2E41"/>
<path d="M311.01 73.3163C311.01 73.3163 314.061 80.8452 316.214 82.1C318.368 83.3549 317.291 89.0912 317.291 89.0912L311.907 96.6201H307.6L302.396 87.6571C302.396 87.6571 302.037 81.7415 300.961 80.3074C299.884 78.8734 311.01 73.3163 311.01 73.3163Z" fill="#D5A790"/>
<path opacity="0.1" d="M311.01 73.3163C311.01 73.3163 314.061 80.8452 316.214 82.1C318.368 83.3549 317.291 89.0912 317.291 89.0912L311.907 96.6201H307.6L302.396 87.6571C302.396 87.6571 302.037 81.7415 300.961 80.3074C299.884 78.8734 311.01 73.3163 311.01 73.3163Z" fill="black"/>
<path d="M315.496 88.7327L323.572 90.5253L329.494 150.04C329.494 150.04 326.264 150.577 323.033 154.88C319.803 159.182 315.855 158.465 313.881 157.389C311.907 156.314 304.011 153.266 303.832 152.012C303.653 150.757 304.191 128.708 304.191 128.708L299.166 94.2897L301.679 90.5253H306.165L309.754 93.5727L315.496 88.7327Z" fill="#FF8761"/>
<path d="M303.294 82.6378C308.447 82.6378 312.625 78.4644 312.625 73.3163C312.625 68.1681 308.447 63.9948 303.294 63.9948C298.14 63.9948 293.962 68.1681 293.962 73.3163C293.962 78.4644 298.14 82.6378 303.294 82.6378Z" fill="#D5A790"/>
<path d="M316.753 85.6852C316.753 85.6852 334.339 87.4778 335.954 91.2422C337.569 95.0067 334.877 111.678 334.877 111.678C334.877 111.678 341.338 126.198 341.158 129.604C340.979 133.01 347.26 156.314 340.44 153.625C333.621 150.936 335.775 143.945 332.365 148.964C328.955 153.983 327.52 153.266 327.52 153.266C327.52 153.266 324.11 158.823 323.033 158.286C321.957 157.748 321.239 153.625 323.572 151.653C325.905 149.681 325.546 146.275 321.059 139.822C316.573 133.368 311.907 99.4882 314.599 94.2897C317.291 89.0911 316.753 85.6852 316.753 85.6852Z" fill="#D0CDE1"/>
<path d="M335.057 154.521L332.006 157.389L328.238 154.88L329.853 151.115L335.057 154.521Z" fill="#D5A790"/>
<path d="M303.832 88.7327C303.832 88.7327 290.194 93.752 290.194 99.1298C290.194 104.508 298.448 127.991 298.448 127.991C298.448 127.991 298.448 134.086 298.089 135.52C297.731 136.954 292.084 149.462 297.013 150.577C300.089 151.274 302.617 153.104 302.845 155.686C303.116 158.753 300.766 162.624 300.961 163.305C301.32 164.56 303.473 166.352 303.294 165.456C303.114 164.56 304.729 151.653 307.242 145.917C309.754 140.18 306.165 101.639 305.447 96.6201C305.101 93.9554 304.561 91.3193 303.832 88.7327Z" fill="#D0CDE1"/>
<path d="M296.654 154.162L299.884 161.871L302.307 156.941L299.525 150.757L296.654 154.162Z" fill="#D5A790"/>
<path d="M313.806 79.0913C313.806 79.0913 316.753 80.3074 318.547 80.3074C320.342 80.3074 327.699 84.0719 325.187 86.4022C322.675 88.7326 318.906 89.2704 317.112 92.6763C315.317 96.0823 314.42 96.6201 314.42 96.6201L311.225 92.3329C311.225 92.3329 315.676 87.2985 315.496 85.6852C315.317 84.0719 313.806 79.0913 313.806 79.0913Z" fill="#FF8761"/>
<path d="M301.912 83.4014C301.912 83.4014 299.705 84.2511 299.166 85.6852C298.628 87.1193 295.218 89.8082 296.654 90.5252C298.089 91.2423 304.37 94.1104 305.626 94.6482C306.883 95.186 309.224 93.1225 309.224 93.1225C309.224 93.1225 306.075 91.3319 306.075 90.0771C306.075 88.8223 301.912 83.4014 301.912 83.4014Z" fill="#FF8761"/>
<path d="M294.5 96.6201L290.194 97.6957C290.194 97.6957 284.272 124.226 286.066 130.859C287.861 137.491 296.295 157.389 296.295 157.389L301.679 151.115C301.679 151.115 299.33 136.848 297.992 135.915C296.654 134.982 297.551 133.01 297.551 132.472C297.551 131.934 298.09 132.293 296.833 131.038C295.577 129.783 301.499 122.792 299.884 120.82C298.269 118.848 294.5 96.6201 294.5 96.6201Z" fill="#D0CDE1"/>
<path opacity="0.1" d="M336.941 101.55L334.339 91.78C334.339 91.78 341.338 96.7993 342.773 104.149C344.209 111.499 349.772 126.198 346.183 132.651C342.594 139.105 336.313 157.748 334.16 157.389C332.006 157.031 326.802 152.549 326.623 151.832C326.443 151.115 335.954 134.623 334.518 133.368C333.083 132.114 333.442 128.887 334.518 128.17C335.595 127.453 336.851 124.047 335.954 124.226C335.057 124.405 332.365 122.613 332.903 120.641C333.442 118.669 330.212 105.404 330.212 105.404L336.941 101.55Z" fill="black"/>
<path d="M333.442 90.5253L335.954 91.2423C335.954 91.2423 342.953 96.2616 344.388 103.611C345.824 110.961 351.387 125.66 347.798 132.114C344.209 138.567 337.928 157.21 335.775 156.852C333.621 156.493 328.417 152.012 328.238 151.295C328.058 150.577 337.569 134.086 336.134 132.831C334.698 131.576 335.057 128.349 336.134 127.632C337.21 126.915 338.466 123.509 337.569 123.688C336.672 123.868 333.98 122.075 334.518 120.103C335.057 118.131 331.827 104.866 331.827 104.866L333.442 90.5253Z" fill="#D0CDE1"/>
<path d="M310.535 64.9022L312.285 64.2664C312.285 64.2664 308.626 60.6108 303.534 60.9287L304.966 59.4983C304.966 59.4983 301.466 58.2268 298.284 61.5645C296.611 63.319 294.675 65.3814 293.469 67.7046H291.595L292.377 69.2675L289.639 70.8304L292.449 70.5497C292.183 71.899 292.275 73.2944 292.715 74.5974L293.351 76.3457C293.351 76.3457 295.897 71.2596 295.897 70.6239V72.2133C295.897 72.2133 297.647 70.7828 297.647 69.8292L298.602 70.9418L299.079 69.1935L304.966 70.9418L304.012 69.5114L307.671 69.9882L306.239 68.2399C306.239 68.2399 310.376 70.306 310.535 72.0544C310.694 73.8027 312.763 76.0278 312.763 76.0278L313.717 74.4384C313.717 74.4384 315.149 67.2862 310.535 64.9022Z" fill="#2F2E41"/>
<path d="M310.174 74.3469C310.93 74.3469 311.543 73.3847 311.543 72.1979C311.543 71.0111 310.93 70.049 310.174 70.049C309.418 70.049 308.805 71.0111 308.805 72.1979C308.805 73.3847 309.418 74.3469 310.174 74.3469Z" fill="#D5A790"/>
</g>
<defs>
<clipPath id="clip0_29:130">
<rect width="362" height="252.087" fill="white" transform="translate(0 0.891357)"/>
</clipPath>
</defs>
</svg>
