<svg width="362" height="314" viewBox="0 0 362 314" fill="none" xmlns="http://www.w3.org/2000/svg">
<g clip-path="url(#clip0_14:4)">
<path d="M197.594 87.9478C216.002 87.9478 230.926 73.0208 230.926 54.6073C230.926 36.1939 216.002 21.2668 197.594 21.2668C179.185 21.2668 164.261 36.1939 164.261 54.6073C164.261 73.0208 179.185 87.9478 197.594 87.9478Z" fill="#D5A790"/>
<path d="M172.715 71.2775C172.715 71.2775 178.995 118.631 169.334 123.946C159.672 129.261 226.82 129.744 226.82 129.744C226.82 129.744 211.844 88.6726 218.607 76.1095L172.715 71.2775Z" fill="#D5A790"/>
<path d="M275.851 129.984L270.267 155.419L258.459 209.232L258.106 212.179L254.031 246.296L251.32 268.961L249.502 284.186C238.451 289.867 230.442 293.789 230.442 293.789C230.442 293.789 229.753 290.334 228.642 285.913C220.887 288.239 206.536 292.098 194.375 292.868C198.803 297.806 200.838 302.444 198.078 305.867C189.747 316.186 155.352 294.569 143.322 286.507C143.042 288.437 142.936 290.389 143.005 292.338L133.799 285.256L134.71 268.961L136.246 241.391L138.177 206.815C137.568 205.335 137.058 203.815 136.65 202.268C133.83 192.239 130.408 172.212 127.784 155.419C125.671 141.903 124.085 130.482 123.749 128.052C123.704 127.735 123.681 127.572 123.681 127.572L174.643 105.047C178.265 113.449 195.177 115.974 195.177 115.974C209.188 115.008 220.171 107.618 220.171 107.618L275.851 129.984Z" fill="#D0CDE1"/>
<path d="M234.309 284.127C234.309 284.127 232.151 284.866 228.643 285.913C220.887 288.239 206.536 292.098 194.375 292.868C183.904 293.539 175.056 291.925 173.438 285.093C172.744 282.155 173.728 279.738 175.872 277.752C182.272 271.818 198.989 269.691 212.248 268.961C215.992 268.757 219.455 268.662 222.337 268.626C227.233 268.562 230.442 268.662 230.442 268.662L230.519 268.961L234.309 284.127Z" fill="#D5A790"/>
<path d="M169.864 23.0703L163.632 20.5746C163.632 20.5746 176.663 6.22444 194.794 7.47233L189.694 1.857C189.694 1.857 202.159 -3.1343 213.49 9.96794C219.447 16.8555 226.339 24.9515 230.636 34.0715H237.31L234.524 40.2067L244.274 46.3418L234.267 45.2398C234.863 48.5995 234.955 52.0294 234.539 55.4162C234.109 58.8039 232.381 61.8923 229.718 64.0296V64.0296C229.718 64.0296 221.989 48.0269 221.989 45.5312V51.7704C221.989 51.7704 215.757 46.1552 215.757 42.4117L212.357 46.7791L210.658 39.916L189.694 46.7791L193.094 41.1639L180.063 43.0356L185.162 36.1725C185.162 36.1725 170.431 44.2834 169.864 51.1466C169.298 58.0096 164.986 64.5128 164.986 64.5128C164.986 64.5128 153.434 32.429 169.864 23.0703Z" fill="#2F2E41"/>
<path d="M312.082 246.917C308.687 250.599 300.274 256.144 290.075 262.147C286.281 264.377 282.243 266.676 278.122 268.961C268.291 274.415 257.997 279.82 249.502 284.186C238.451 289.867 230.442 293.789 230.442 293.789C230.442 293.789 229.753 290.334 228.642 285.913C227.156 279.997 224.917 272.348 222.582 268.961C222.501 268.843 222.419 268.734 222.337 268.626C221.657 267.733 220.973 267.211 220.298 267.211L254.031 246.296L268.608 237.256L258.106 212.179L244.933 180.723L252.884 155.419L260.875 129.984H275.851C275.851 129.984 280.81 140.811 287.152 155.909C288.099 158.166 289.078 160.52 290.075 162.95C303.121 194.687 319.384 239.006 312.082 246.917Z" fill="#D0CDE1"/>
<path d="M198.078 305.867C189.747 316.186 155.352 294.569 143.322 286.507C140.702 284.753 139.143 283.642 139.143 283.642L150.148 268.961L153.634 264.314C153.634 264.314 156.753 265.969 161.362 268.662C161.53 268.762 161.698 268.861 161.87 268.961C165.845 271.296 170.836 274.347 175.872 277.752C182.821 282.454 189.846 287.818 194.375 292.868C198.803 297.806 200.838 302.444 198.078 305.867Z" fill="#D5A790"/>
<path d="M161.363 268.662C160.132 268.657 158.904 268.757 157.691 268.961C147.27 270.752 144.197 280.187 143.322 286.507C143.042 288.438 142.936 290.389 143.005 292.338L133.799 285.256L130.444 282.676C122.372 279.861 115.178 274.86 108.941 268.961C103.53 263.754 98.6765 257.996 94.4587 251.782C90.2577 245.658 86.5125 239.233 83.2537 232.559C82.3444 230.696 81.8556 228.657 81.8219 226.584C81.7883 224.512 82.2105 222.457 83.0588 220.566L94.4587 195.154L111.121 158.012C111.244 157.128 111.378 156.264 111.525 155.419C114.829 136.467 123.682 128.052 123.682 128.052H130.444L134.968 155.419L140.589 189.419L136.65 202.268L127.548 231.942L136.246 241.391L161.363 268.662Z" fill="#D0CDE1"/>
<path d="M169.017 189.446L174.798 196.193C176.946 195.783 179.189 195.301 181.5 194.761L179.839 189.446L183.899 194.184C208.375 188.162 238.713 176.456 238.713 176.456C238.713 176.456 205.96 178.858 181.505 173.514C170.685 171.149 159.553 176.514 155.113 186.663C152.532 192.562 152.937 197.673 162.09 197.673C165.183 197.62 168.267 197.33 171.316 196.805L169.017 189.446Z" fill="#FF8761"/>
<path d="M300.818 300.336V303.088C300.82 303.843 300.68 304.592 300.406 305.296C300.284 305.609 300.137 305.913 299.966 306.203C299.426 307.11 298.659 307.861 297.741 308.382C296.823 308.903 295.786 309.177 294.73 309.177H92.3192C91.2637 309.177 90.2262 308.903 89.3085 308.382C88.3907 307.861 87.6241 307.11 87.0839 306.203C86.913 305.913 86.7659 305.609 86.6442 305.296C86.3701 304.592 86.2302 303.843 86.2317 303.088V300.336C86.2315 299.536 86.3888 298.744 86.6947 298.005C87.0005 297.266 87.4489 296.595 88.0142 296.03C88.5796 295.464 89.2507 295.016 89.9894 294.71C90.728 294.404 91.5197 294.247 92.3192 294.247H103.987V292.964C103.987 292.93 103.993 292.897 104.006 292.866C104.019 292.836 104.037 292.808 104.061 292.784C104.084 292.76 104.112 292.742 104.143 292.729C104.174 292.716 104.207 292.71 104.24 292.71H110.328C110.361 292.71 110.394 292.716 110.425 292.729C110.456 292.742 110.484 292.76 110.508 292.784C110.531 292.808 110.55 292.836 110.563 292.866C110.575 292.897 110.582 292.93 110.582 292.964V294.247H114.385V292.964C114.385 292.93 114.391 292.897 114.404 292.866C114.417 292.836 114.435 292.808 114.459 292.784C114.483 292.76 114.511 292.742 114.541 292.729C114.572 292.716 114.605 292.71 114.639 292.71H120.726C120.759 292.71 120.793 292.716 120.823 292.729C120.854 292.742 120.882 292.76 120.906 292.784C120.929 292.808 120.948 292.836 120.961 292.866C120.973 292.897 120.98 292.93 120.98 292.964V294.247H124.788V292.964C124.787 292.93 124.794 292.897 124.807 292.866C124.819 292.836 124.838 292.808 124.862 292.784C124.885 292.76 124.913 292.742 124.944 292.729C124.975 292.716 125.008 292.71 125.041 292.71H131.129C131.162 292.71 131.195 292.716 131.226 292.729C131.257 292.742 131.285 292.76 131.308 292.784C131.332 292.808 131.351 292.836 131.363 292.866C131.376 292.897 131.383 292.93 131.383 292.964V294.247H135.186V292.964C135.186 292.93 135.192 292.897 135.205 292.866C135.218 292.836 135.236 292.808 135.26 292.784C135.284 292.76 135.312 292.742 135.342 292.729C135.373 292.716 135.406 292.71 135.44 292.71H141.527C141.56 292.71 141.593 292.716 141.624 292.729C141.655 292.742 141.683 292.76 141.707 292.784C141.73 292.808 141.749 292.836 141.762 292.866C141.774 292.897 141.781 292.93 141.781 292.964V294.247H145.584V292.964C145.584 292.93 145.59 292.897 145.603 292.866C145.616 292.836 145.635 292.808 145.658 292.784C145.682 292.76 145.71 292.742 145.741 292.729C145.771 292.716 145.804 292.71 145.838 292.71H151.925C151.959 292.71 151.992 292.716 152.022 292.729C152.053 292.742 152.081 292.76 152.105 292.784C152.128 292.808 152.147 292.836 152.16 292.866C152.173 292.897 152.179 292.93 152.179 292.964V294.247H155.987V292.964C155.987 292.93 155.993 292.897 156.006 292.866C156.019 292.836 156.037 292.808 156.061 292.784C156.084 292.76 156.112 292.742 156.143 292.729C156.174 292.716 156.207 292.71 156.24 292.71H162.328C162.361 292.71 162.394 292.716 162.425 292.729C162.456 292.742 162.484 292.76 162.508 292.784C162.531 292.808 162.55 292.836 162.563 292.866C162.575 292.897 162.582 292.93 162.582 292.964V294.247H166.385V292.964C166.385 292.93 166.391 292.897 166.404 292.866C166.417 292.836 166.435 292.808 166.459 292.784C166.483 292.76 166.511 292.742 166.541 292.729C166.572 292.716 166.605 292.71 166.639 292.71H214.323C214.357 292.71 214.39 292.716 214.421 292.729C214.452 292.742 214.48 292.76 214.503 292.784C214.527 292.808 214.545 292.836 214.558 292.866C214.571 292.897 214.577 292.93 214.577 292.964V294.247H218.385V292.964C218.385 292.93 218.391 292.897 218.404 292.866C218.417 292.836 218.435 292.808 218.459 292.784C218.483 292.76 218.511 292.742 218.541 292.729C218.572 292.716 218.605 292.71 218.639 292.71H224.726C224.793 292.71 224.858 292.737 224.905 292.785C224.952 292.832 224.979 292.897 224.98 292.964V294.247H228.783V292.964C228.783 292.93 228.79 292.897 228.802 292.866C228.815 292.836 228.834 292.808 228.857 292.784C228.881 292.76 228.909 292.742 228.94 292.729C228.971 292.716 229.004 292.71 229.037 292.71H235.124C235.158 292.71 235.191 292.716 235.222 292.729C235.252 292.742 235.28 292.76 235.304 292.784C235.328 292.808 235.346 292.836 235.359 292.866C235.372 292.897 235.378 292.93 235.378 292.964V294.247H239.181V292.964C239.181 292.93 239.188 292.897 239.2 292.866C239.213 292.836 239.232 292.808 239.256 292.784C239.279 292.76 239.307 292.742 239.338 292.729C239.369 292.716 239.402 292.71 239.435 292.71H245.523C245.556 292.71 245.589 292.716 245.62 292.729C245.651 292.742 245.679 292.76 245.702 292.784C245.726 292.808 245.745 292.836 245.757 292.866C245.77 292.897 245.777 292.93 245.776 292.964V294.247H249.584V292.964C249.584 292.93 249.59 292.897 249.603 292.866C249.616 292.836 249.635 292.808 249.658 292.784C249.682 292.76 249.71 292.742 249.741 292.729C249.771 292.716 249.805 292.71 249.838 292.71H255.925C255.992 292.711 256.056 292.738 256.102 292.785C256.149 292.833 256.175 292.897 256.175 292.964V294.247H259.982V292.964C259.982 292.93 259.989 292.897 260.001 292.866C260.014 292.836 260.033 292.808 260.056 292.784C260.08 292.76 260.108 292.742 260.139 292.729C260.17 292.716 260.203 292.71 260.236 292.71H266.324C266.357 292.71 266.39 292.716 266.421 292.729C266.452 292.742 266.48 292.76 266.503 292.784C266.527 292.808 266.545 292.836 266.558 292.866C266.571 292.897 266.577 292.93 266.577 292.964V294.247H270.38V292.964C270.38 292.93 270.387 292.897 270.4 292.866C270.412 292.836 270.431 292.808 270.455 292.784C270.478 292.76 270.506 292.742 270.537 292.729C270.568 292.716 270.601 292.71 270.634 292.71H276.722C276.755 292.71 276.788 292.716 276.819 292.729C276.85 292.742 276.878 292.76 276.901 292.784C276.925 292.808 276.944 292.836 276.956 292.866C276.969 292.897 276.976 292.93 276.976 292.964V294.247H294.73C295.53 294.247 296.322 294.404 297.06 294.71C297.799 295.016 298.47 295.464 299.035 296.03C299.601 296.595 300.049 297.266 300.355 298.005C300.661 298.744 300.818 299.536 300.818 300.336V300.336Z" fill="#3F3D56"/>
<path d="M359.676 305.296H27.4233V306.204H359.676V305.296Z" fill="#3F3D56"/>
<path d="M284.52 184.436H209.075V182.881H174.866V184.436H99.1096C97.7562 184.436 96.4581 184.974 95.5011 185.931C94.544 186.888 94.0063 188.187 94.0063 189.541V292.873C94.0063 294.227 94.544 295.525 95.5011 296.483C96.4581 297.44 97.7561 297.978 99.1096 297.978H284.52C285.874 297.978 287.172 297.44 288.129 296.483C289.086 295.525 289.623 294.227 289.623 292.873V189.541C289.623 188.87 289.491 188.206 289.235 187.587C288.978 186.968 288.602 186.405 288.129 185.931C287.655 185.457 287.092 185.081 286.473 184.825C285.854 184.568 285.19 184.436 284.52 184.436V184.436Z" fill="#3F3D56"/>
<path d="M191.963 231.847C198.222 231.847 203.295 226.772 203.295 220.512C203.295 214.252 198.222 209.177 191.963 209.177C185.705 209.177 180.631 214.252 180.631 220.512C180.631 226.772 185.705 231.847 191.963 231.847Z" stroke="#D0CDE1" stroke-width="2" stroke-miterlimit="10"/>
<path d="M188.337 235.927C194.596 235.927 199.669 230.852 199.669 224.592C199.669 218.332 194.596 213.258 188.337 213.258C182.079 213.258 177.005 218.332 177.005 224.592C177.005 230.852 182.079 235.927 188.337 235.927Z" fill="#D0CDE1"/>
<path d="M49.1561 300.715H36.4644V313.41H49.1561V300.715Z" fill="#D0CDE1"/>
<path d="M41.4521 290.741V306.156H56.8636V290.741H41.4521ZM56.1927 305.485H42.1185V291.412H56.1927V305.485Z" fill="#3F3D56"/>
<path d="M342.88 300.715H330.188V313.41H342.88V300.715Z" fill="#D0CDE1"/>
<path d="M335.176 290.741V306.156H350.588V290.741H335.176ZM349.917 305.485H335.843V291.412H349.917V305.485Z" fill="#3F3D56"/>
<path d="M42.871 105.255C62.7329 105.255 78.8342 89.1493 78.8342 69.2825C78.8342 49.4156 62.7329 33.3104 42.871 33.3104C23.009 33.3104 6.90771 49.4156 6.90771 69.2825C6.90771 89.1493 23.009 105.255 42.871 105.255Z" fill="#FF8761"/>
<path d="M55.4036 26.5357C52.1473 26.1214 48.8517 26.1214 45.5954 26.5357C38.341 27.4884 31.512 30.5027 25.9189 35.221C20.3257 39.9393 16.2032 46.1635 14.0404 53.155C13.0568 56.3412 12.4998 59.6438 12.3839 62.9765C12.3676 63.4398 12.3567 63.9085 12.3567 64.3772C12.3668 74.4927 16.3887 84.191 23.5396 91.3438C30.6906 98.4965 40.3865 102.519 50.4995 102.529C51.3114 102.529 52.1233 102.502 52.9243 102.453C54.8046 102.335 56.6734 102.076 58.515 101.679C67.3094 99.7876 75.1526 94.8482 80.6593 87.7334C86.166 80.6186 88.9819 71.7863 88.6097 62.7963C88.2375 53.8063 84.701 45.2371 78.625 38.6021C72.549 31.9672 64.3243 27.6934 55.4036 26.5357H55.4036ZM62.4382 99.4664H62.4328C59.3609 100.515 56.1635 101.151 52.9243 101.358C52.1233 101.412 51.3114 101.439 50.4995 101.439C40.6761 101.427 31.2585 97.5188 24.3123 90.5709C17.3661 83.623 13.4585 74.203 13.4464 64.3772C13.4464 63.9085 13.4574 63.4398 13.4737 62.9765C13.8483 53.4007 17.9116 44.341 24.8129 37.694C31.7143 31.0469 40.9188 27.3278 50.4995 27.315C59.2779 27.3155 67.771 30.4332 74.4657 36.1127C81.1604 41.7922 85.6218 49.6645 87.0552 58.3272C88.4886 66.9898 86.8008 75.8802 82.2925 83.4143C77.7842 90.9484 70.7483 96.6369 62.4382 99.4664H62.4382Z" fill="#3F3D56"/>
<path d="M51.0446 29.4951H49.9548V37.1256H51.0446V29.4951Z" fill="#3F3D56"/>
<path d="M26.2257 39.3265L25.4551 40.0973L30.8493 45.4928L31.6199 44.722L26.2257 39.3265Z" fill="#3F3D56"/>
<path d="M15.6262 63.8322V64.9222H23.2548V63.8322H15.6262Z" fill="#3F3D56"/>
<path d="M25.455 88.6572L26.2256 89.4279L31.6198 84.0324L30.8492 83.2616L25.455 88.6572Z" fill="#3F3D56"/>
<path d="M69.3793 44.722L70.1499 45.4928L75.5441 40.0972L74.7735 39.3264L69.3793 44.722Z" fill="#3F3D56"/>
<path d="M77.7446 63.8322V64.9222H85.3732V63.8322H77.7446Z" fill="#3F3D56"/>
<path d="M70.15 83.2616L69.3794 84.0324L74.7736 89.4279L75.5442 88.6571L70.15 83.2616Z" fill="#3F3D56"/>
<path d="M51.0446 91.6288H49.9548V99.2592H51.0446V91.6288Z" fill="#3F3D56"/>
<path d="M52.1343 62.1971C51.6627 61.8433 51.0891 61.652 50.4996 61.652C49.9101 61.652 49.3365 61.8433 48.8649 62.1971C48.5421 62.4424 48.2762 62.7548 48.0857 63.1127C47.8443 63.5737 47.7399 64.0941 47.7848 64.6125C47.8297 65.1309 48.022 65.6257 48.3391 66.0382C48.6561 66.4508 49.0846 66.764 49.5739 66.9407C50.0632 67.1174 50.5929 67.1504 51.1003 67.0356C51.6077 66.9209 52.0717 66.6632 52.4374 66.2931C52.8031 65.923 53.0552 65.4559 53.1639 64.947C53.2727 64.4382 53.2335 63.9088 53.0511 63.4215C52.8686 62.9342 52.5505 62.5093 52.1343 62.1971H52.1343ZM50.4996 66.0123C50.0665 66.011 49.6514 65.8383 49.3451 65.532C49.0388 65.2256 48.8662 64.8105 48.8649 64.3772C48.867 64.0465 48.9676 63.7239 49.1537 63.4506C49.3134 63.2193 49.53 63.0332 49.7826 62.9101C50.0353 62.7871 50.3154 62.7313 50.5959 62.7482C50.8764 62.7651 51.1478 62.8542 51.3838 63.0067C51.6198 63.1592 51.8125 63.3701 51.9432 63.6189C52.074 63.8677 52.1383 64.146 52.13 64.427C52.1217 64.7079 52.0411 64.982 51.8959 65.2226C51.7508 65.4633 51.546 65.6624 51.3014 65.8007C51.0568 65.9391 50.7806 66.0119 50.4996 66.0123V66.0123Z" fill="#3F3D56"/>
<path d="M55.4036 16.9594H45.5955V26.77H55.4036V16.9594Z" fill="#3F3D56"/>
<path d="M50.4997 18.5945C57.7222 18.5945 63.5772 16.5203 63.5772 13.9617C63.5772 11.4031 57.7222 9.32892 50.4997 9.32892C43.2771 9.32892 37.4221 11.4031 37.4221 13.9617C37.4221 16.5203 43.2771 18.5945 50.4997 18.5945Z" fill="#3F3D56"/>
<path d="M52.1344 43.666H48.865V62.1971H52.1344V43.666Z" fill="#3F3D56"/>
<path d="M102.441 100.869H0V101.959H102.441V100.869Z" fill="#3F3D56"/>
<path d="M68.2607 272.846C68.6836 287.332 60.2217 292.64 49.6023 292.951C49.3556 292.958 49.1101 292.962 48.8656 292.964C48.3732 292.968 47.8855 292.959 47.4026 292.939C37.7983 292.54 30.1961 287.441 29.8027 273.969C29.3957 260.028 46.6959 241.913 47.9939 240.573L47.9962 240.572C48.0455 240.521 48.0708 240.495 48.0708 240.495C48.0708 240.495 67.8377 258.361 68.2607 272.846Z" fill="#D0CDE1"/>
<path d="M48.8379 290.755L55.5837 280.721L48.8517 291.835L48.8658 292.964C48.3733 292.968 47.8856 292.959 47.4027 292.939L47.7373 278.425L47.7281 278.313L47.7405 278.292L47.7725 276.92L40.385 266.192L47.7638 275.894L47.79 276.184L48.0427 265.218L41.6619 254.095L48.0608 263.292L47.994 240.573L47.9942 240.498L47.9964 240.572L48.4199 258.477L54.2353 251.204L48.439 260.02L48.5659 269.828L53.9172 260.255L48.5856 271.27L48.6562 276.724L56.4384 263.389L48.6799 278.627L48.8379 290.755Z" fill="#3F3D56"/>
<path d="M361.985 272.846C362.408 287.332 353.946 292.64 343.326 292.951C343.08 292.958 342.834 292.962 342.59 292.964C342.097 292.968 341.61 292.959 341.127 292.939C331.522 292.54 323.92 287.441 323.527 273.969C323.12 260.028 340.42 241.913 341.718 240.573L341.72 240.572C341.77 240.521 341.795 240.495 341.795 240.495C341.795 240.495 361.562 258.361 361.985 272.846Z" fill="#D0CDE1"/>
<path d="M342.562 290.755L349.308 280.721L342.576 291.835L342.59 292.964C342.097 292.968 341.609 292.959 341.127 292.939L341.461 278.425L341.452 278.313L341.464 278.292L341.496 276.92L334.109 266.192L341.488 275.894L341.514 276.184L341.767 265.218L335.386 254.095L341.785 263.292L341.718 240.573L341.718 240.498L341.72 240.572L342.144 258.477L347.959 251.204L342.163 260.02L342.29 269.828L347.641 260.255L342.309 271.27L342.38 276.724L350.162 263.389L342.404 278.627L342.562 290.755Z" fill="#3F3D56"/>
</g>
<defs>
<clipPath id="clip0_14:4">
<rect width="362" height="312.486" fill="white" transform="translate(0 0.923645)"/>
</clipPath>
</defs>
</svg>
