<svg width="362" height="270" viewBox="0 0 362 270" fill="none" xmlns="http://www.w3.org/2000/svg">
<g clip-path="url(#clip0_41:924)">
<path d="M196.959 27.5314C201.679 27.5314 205.506 23.7013 205.506 18.9766C205.506 14.2519 201.679 10.4218 196.959 10.4218C192.239 10.4218 188.412 14.2519 188.412 18.9766C188.412 23.7013 192.239 27.5314 196.959 27.5314Z" fill="#FF8761"/>
<path d="M196.112 22.24C195.92 22.2404 195.733 22.1781 195.579 22.0626L195.569 22.0555L193.56 20.5175C193.467 20.4461 193.389 20.3571 193.331 20.2555C193.272 20.1539 193.234 20.0418 193.219 19.9255C193.203 19.8091 193.211 19.6909 193.241 19.5776C193.272 19.4642 193.324 19.358 193.395 19.2649C193.466 19.1717 193.555 19.0936 193.657 19.0349C193.758 18.9762 193.87 18.938 193.987 18.9227C194.103 18.9073 194.221 18.915 194.334 18.9453C194.447 18.9756 194.554 19.028 194.647 19.0994L195.948 20.098L199.022 16.0834C199.094 15.9903 199.182 15.9122 199.284 15.8535C199.385 15.7948 199.497 15.7567 199.614 15.7413C199.73 15.726 199.848 15.7337 199.961 15.764C200.074 15.7943 200.18 15.8466 200.273 15.918L200.273 15.9182L200.254 15.9447L200.274 15.9182C200.462 16.0625 200.584 16.2754 200.615 16.5102C200.646 16.745 200.583 16.9825 200.439 17.1706L196.823 21.8905C196.739 21.9993 196.632 22.0873 196.508 22.1477C196.385 22.2081 196.25 22.2394 196.113 22.239L196.112 22.24Z" fill="white"/>
<path d="M196.959 85.3648C201.679 85.3648 205.506 81.5347 205.506 76.81C205.506 72.0853 201.679 68.2551 196.959 68.2551C192.239 68.2551 188.412 72.0853 188.412 76.81C188.412 81.5347 192.239 85.3648 196.959 85.3648Z" fill="#FF8761"/>
<path d="M196.112 80.0734C195.92 80.0737 195.733 80.0114 195.579 79.896L195.569 79.8888L193.56 78.3509C193.467 78.2795 193.389 78.1905 193.331 78.0889C193.272 77.9873 193.234 77.8751 193.219 77.7588C193.203 77.6425 193.211 77.5243 193.241 77.4109C193.272 77.2976 193.324 77.1913 193.395 77.0982C193.466 77.0051 193.555 76.9269 193.657 76.8682C193.758 76.8095 193.87 76.7714 193.987 76.756C194.103 76.7407 194.221 76.7484 194.334 76.7787C194.447 76.809 194.554 76.8613 194.647 76.9327L195.948 77.9313L199.022 73.9167C199.094 73.8236 199.182 73.7455 199.284 73.6868C199.385 73.6282 199.497 73.5901 199.614 73.5747C199.73 73.5593 199.848 73.567 199.961 73.5974C200.074 73.6277 200.18 73.68 200.273 73.7513L200.273 73.7515L200.254 73.7781L200.274 73.7515C200.462 73.8959 200.584 74.1088 200.615 74.3436C200.646 74.5784 200.583 74.8159 200.439 75.0039L196.823 79.7239C196.739 79.8326 196.632 79.9207 196.508 79.9811C196.385 80.0415 196.25 80.0727 196.113 80.0723L196.112 80.0734Z" fill="white"/>
<path d="M218.424 166.704C218.396 165.995 218.524 165.288 218.799 164.634C219.073 163.979 219.488 163.393 220.014 162.917C220.539 162.44 221.163 162.084 221.84 161.875C222.518 161.666 223.233 161.607 223.935 161.705L231.763 146.333L236.187 154.129L228.075 167.531C227.833 168.702 227.172 169.743 226.215 170.457C225.258 171.172 224.072 171.51 222.882 171.408C221.693 171.306 220.582 170.771 219.76 169.904C218.938 169.037 218.463 167.899 218.424 166.704L218.424 166.704Z" fill="#D5A790"/>
<path d="M254.919 263.5L248.776 263.5L245.853 239.783L254.92 239.784L254.919 263.5Z" fill="#D5A790"/>
<path d="M256.486 269.461L236.677 269.46V269.209C236.677 267.163 237.49 265.2 238.936 263.753C240.381 262.306 242.342 261.493 244.387 261.492H244.388L256.486 261.493L256.486 269.461Z" fill="#2F2E41"/>
<path d="M288.221 263.5L282.078 263.5L279.156 239.783L288.222 239.784L288.221 263.5Z" fill="#D5A790"/>
<path d="M289.788 269.461L269.98 269.46V269.209C269.98 267.163 270.792 265.2 272.238 263.753C273.684 262.306 275.645 261.493 277.69 261.492H277.69L289.788 261.493L289.788 269.461Z" fill="#2F2E41"/>
<path d="M227.86 153.326L225.178 157.799C225.178 157.799 229.648 157.799 230.541 164.51L234.117 160.036L227.86 153.326Z" fill="#E5E5E5"/>
<path d="M274.791 143.931C274.791 143.931 281.943 162.72 283.284 174.352C284.625 185.984 286.86 216.852 286.86 216.852L291.329 256.669L278.814 258.458L273.451 218.195L261.382 178.378L258.701 218.195L256.466 254.432L244.845 254.879L243.951 217.3L239.034 169.431L241.716 146.615L274.791 143.931Z" fill="#2F2E41"/>
<path d="M254.678 87.1649C260.849 87.1649 265.852 82.1575 265.852 75.9806C265.852 69.8037 260.849 64.7963 254.678 64.7963C248.507 64.7963 243.504 69.8037 243.504 75.9806C243.504 82.1575 248.507 87.1649 254.678 87.1649Z" fill="#D5A790"/>
<path d="M266.075 86.891L270.545 90.0221L276.356 148.628L240.151 149.523L245.068 108.812L249.538 97.1804L252.764 92.9111L266.075 86.891Z" fill="#E5E5E5"/>
<path d="M266.969 128.944L268.337 88.4753C268.337 88.4753 270.992 88.6802 271.886 90.0224C272.78 91.3645 287.53 94.0487 287.53 94.0487L284.848 135.654C284.848 135.654 296.022 168.76 292 170.549C287.977 172.339 280.826 171.891 280.826 171.891L266.969 128.944Z" fill="#2F2E41"/>
<path d="M245.292 123.799L250.033 96.5249L239.481 103.667L242.163 123.352L239.928 136.773C239.928 136.773 231.436 173.905 234.117 175.247C236.799 176.589 239.928 175.247 239.928 175.247L245.292 137.668V123.799Z" fill="#2F2E41"/>
<path d="M242.61 102.772L239.481 103.667L238.14 121.562L235.905 137.22L225.178 156.457C225.178 156.457 230.541 152.878 232.776 163.168L244.59 142.581L242.61 102.772Z" fill="#2F2E41"/>
<path d="M264.032 65.3243L266.14 64.4799C266.14 64.4799 261.734 59.6249 255.604 60.0471L257.328 58.1473C257.328 58.1473 253.113 56.4586 249.282 60.8914C247.268 63.2217 244.938 65.9607 243.485 69.0462H241.229L242.171 71.1219L238.874 73.1976L242.258 72.8247C242.056 73.9614 242.025 75.1218 242.166 76.2676C242.311 77.4138 242.895 78.4587 243.796 79.1818C243.796 79.1818 246.409 73.7677 246.409 72.9234V75.0342C246.409 75.0342 248.516 73.1344 248.516 71.8679L249.665 73.3455L250.24 71.0236L257.328 73.3455L256.178 71.4458L260.584 72.079L258.86 69.757L265.682 79.3452C265.682 79.3452 269.588 68.4905 264.032 65.3243Z" fill="#2F2E41"/>
<path d="M266.922 163.035C267.032 162.334 267.295 161.666 267.691 161.077C268.088 160.489 268.608 159.994 269.216 159.629C269.824 159.263 270.504 159.036 271.21 158.962C271.915 158.888 272.628 158.97 273.298 159.202L283.959 145.643L286.786 154.151L276.229 165.722C275.765 166.823 274.914 167.716 273.836 168.231C272.759 168.746 271.53 168.847 270.383 168.516C269.236 168.185 268.25 167.444 267.612 166.434C266.974 165.424 266.729 164.215 266.922 163.035V163.035Z" fill="#D5A790"/>
<path d="M285.072 158.247L281.049 163.168L275.686 153.773L277.92 149.747L285.072 158.247Z" fill="#E5E5E5"/>
<path d="M284.178 95.6146L287.754 93.8251C287.754 93.8251 290.435 97.404 290.882 100.536C291.329 103.667 293.564 107.694 293.564 109.93C293.564 112.167 299.822 133.194 299.822 133.194L285.519 162.273C285.519 162.273 282.39 151.536 275.685 150.641L286.86 134.983L280.602 123.799L284.178 95.6146Z" fill="#2F2E41"/>
<path d="M361.549 269.737H189.559C189.439 269.737 189.325 269.689 189.24 269.604C189.155 269.52 189.108 269.405 189.108 269.285C189.108 269.165 189.155 269.05 189.24 268.965C189.325 268.881 189.439 268.833 189.559 268.833H361.549C361.668 268.833 361.783 268.881 361.868 268.965C361.952 269.05 362 269.165 362 269.285C362 269.405 361.952 269.52 361.868 269.604C361.783 269.689 361.668 269.737 361.549 269.737Z" fill="#CBCBCB"/>
<path d="M164.767 95.7865H0V57.8334H164.767V95.7865Z" fill="white"/>
<path d="M23.7795 70.3824C23.3542 70.3832 22.9466 70.5528 22.6461 70.854C22.3456 71.1553 22.1768 71.5636 22.1768 71.9893C22.1768 72.415 22.3456 72.8233 22.6461 73.1246C22.9466 73.4258 23.3542 73.5955 23.7795 73.5962H140.994C141.419 73.5955 141.827 73.4258 142.127 73.1246C142.428 72.8233 142.597 72.415 142.597 71.9893C142.597 71.5636 142.428 71.1553 142.127 70.854C141.827 70.5528 141.419 70.3832 140.994 70.3824H23.7795Z" fill="#FF8761"/>
<path d="M23.7796 80.0237C23.5688 80.0232 23.36 80.0644 23.165 80.1447C22.9701 80.225 22.7928 80.343 22.6435 80.4919C22.4941 80.6408 22.3754 80.8177 22.2943 81.0125C22.2133 81.2073 22.1713 81.4161 22.1708 81.6271C22.1704 81.8382 22.2115 82.0472 22.2918 82.2423C22.372 82.4374 22.4899 82.6148 22.6387 82.7644C22.7874 82.9139 22.9642 83.0326 23.1588 83.1138C23.3534 83.1949 23.562 83.2369 23.7729 83.2374H97.877C98.0881 83.2377 98.2971 83.1964 98.4922 83.1158C98.6873 83.0353 98.8646 82.917 99.014 82.7677C99.1633 82.6185 99.2818 82.4412 99.3627 82.2461C99.4435 82.0509 99.4851 81.8418 99.4851 81.6305C99.4851 81.4193 99.4435 81.2101 99.3627 81.015C99.2818 80.8199 99.1633 80.6426 99.014 80.4934C98.8646 80.3441 98.6873 80.2258 98.4922 80.1452C98.2971 80.0646 98.0881 80.0233 97.877 80.0237H23.7796Z" fill="#FF8761"/>
<path d="M164.767 95.7865H0V57.8334H164.767V95.7865ZM2.7085 93.0756H162.058V60.5443H2.7085V93.0756Z" fill="#E5E5E5"/>
<path d="M164.767 153.62H0V115.667H164.767V153.62Z" fill="white"/>
<path d="M23.7795 128.216C23.3542 128.217 22.9466 128.386 22.6461 128.687C22.3456 128.989 22.1768 129.397 22.1768 129.823C22.1768 130.248 22.3456 130.657 22.6461 130.958C22.9466 131.259 23.3542 131.429 23.7795 131.43H140.994C141.419 131.429 141.827 131.259 142.127 130.958C142.428 130.657 142.597 130.248 142.597 129.823C142.597 129.397 142.428 128.989 142.127 128.687C141.827 128.386 141.419 128.217 140.994 128.216H23.7795Z" fill="#E6E6E6"/>
<path d="M23.7796 137.857C23.5688 137.857 23.36 137.898 23.165 137.978C22.9701 138.058 22.7928 138.176 22.6435 138.325C22.4941 138.474 22.3754 138.651 22.2943 138.846C22.2133 139.041 22.1713 139.249 22.1708 139.46C22.1704 139.671 22.2115 139.881 22.2918 140.076C22.372 140.271 22.4899 140.448 22.6387 140.598C22.7874 140.747 22.9642 140.866 23.1588 140.947C23.3534 141.028 23.562 141.07 23.7729 141.071H97.877C98.0881 141.071 98.2971 141.03 98.4922 140.949C98.6873 140.869 98.8646 140.75 99.014 140.601C99.1633 140.452 99.2818 140.275 99.3627 140.079C99.4435 139.884 99.4851 139.675 99.4851 139.464C99.4851 139.253 99.4435 139.043 99.3627 138.848C99.2818 138.653 99.1633 138.476 99.014 138.327C98.8646 138.177 98.6873 138.059 98.4922 137.979C98.2971 137.898 98.0881 137.857 97.877 137.857H23.7796Z" fill="#E6E6E6"/>
<path d="M164.767 153.62H0V115.667H164.767V153.62ZM2.7085 150.909H162.058V118.378H2.7085V150.909Z" fill="#E5E5E5"/>
<path d="M166.121 37.9531H1.35425V0H166.121V37.9531Z" fill="white"/>
<path d="M25.1339 12.5491C24.7085 12.5498 24.3009 12.7194 24.0004 13.0207C23.6999 13.3219 23.5311 13.7302 23.5311 14.1559C23.5311 14.5816 23.6999 14.9899 24.0004 15.2912C24.3009 15.5925 24.7085 15.7621 25.1339 15.7628H142.348C142.774 15.7621 143.181 15.5925 143.482 15.2912C143.782 14.9899 143.951 14.5816 143.951 14.1559C143.951 13.7302 143.782 13.3219 143.482 13.0207C143.181 12.7194 142.774 12.5498 142.348 12.5491H25.1339Z" fill="#FF8761"/>
<path d="M25.1339 22.1903C24.7081 22.1894 24.2994 22.3578 23.9977 22.6586C23.696 22.9593 23.526 23.3676 23.5251 23.7938C23.5242 24.22 23.6925 24.629 23.9929 24.931C24.2934 25.233 24.7013 25.4031 25.1271 25.404H99.2313C99.4423 25.4044 99.6514 25.3631 99.8465 25.2825C100.042 25.2019 100.219 25.0836 100.368 24.9344C100.518 24.7851 100.636 24.6079 100.717 24.4127C100.798 24.2176 100.839 24.0084 100.839 23.7972C100.839 23.5859 100.798 23.3768 100.717 23.1816C100.636 22.9865 100.518 22.8092 100.368 22.66C100.219 22.5108 100.042 22.3924 99.8465 22.3119C99.6514 22.2313 99.4423 22.19 99.2313 22.1903H25.1339Z" fill="#FF8761"/>
<path d="M166.121 37.9531H1.35425V0H166.121V37.9531ZM4.06274 35.2422H163.413V2.71094H4.06274V35.2422Z" fill="#E5E5E5"/>
<path d="M333.708 269.945V237.26C333.708 237.26 346.434 260.432 333.708 269.945Z" fill="#F1F1F1"/>
<path d="M334.494 269.939L310.439 247.836C310.439 247.836 336.099 254.123 334.494 269.939Z" fill="#F1F1F1"/>
<path d="M218.627 165.719C223.348 165.719 227.174 161.889 227.174 157.165C227.174 152.44 223.348 148.61 218.627 148.61C213.907 148.61 210.08 152.44 210.08 157.165C210.08 161.889 213.907 165.719 218.627 165.719Z" fill="#FF8761"/>
<path d="M217.78 160.428C217.588 160.428 217.401 160.366 217.247 160.251L217.237 160.244L215.228 158.706C215.135 158.634 215.057 158.545 214.998 158.444C214.94 158.342 214.902 158.23 214.886 158.113C214.871 157.997 214.878 157.879 214.909 157.765C214.939 157.652 214.991 157.546 215.063 157.453C215.134 157.359 215.223 157.281 215.325 157.222C215.426 157.164 215.538 157.126 215.655 157.11C215.771 157.095 215.889 157.103 216.002 157.133C216.115 157.164 216.222 157.216 216.315 157.287L217.616 158.286L220.69 154.271C220.762 154.178 220.85 154.1 220.952 154.042C221.053 153.983 221.165 153.945 221.282 153.929C221.398 153.914 221.516 153.922 221.629 153.952C221.742 153.982 221.848 154.035 221.941 154.106L221.942 154.106L221.922 154.133L221.942 154.106C222.13 154.251 222.252 154.464 222.283 154.698C222.314 154.933 222.251 155.171 222.107 155.359L218.491 160.079C218.407 160.187 218.3 160.275 218.176 160.336C218.053 160.396 217.918 160.427 217.781 160.427L217.78 160.428Z" fill="white"/>
</g>
<defs>
<clipPath id="clip0_41:924">
<rect width="362" height="269.945" fill="white"/>
</clipPath>
</defs>
</svg>
