<svg width="323" height="176" viewBox="0 0 323 176" fill="none" xmlns="http://www.w3.org/2000/svg">
<g clip-path="url(#clip0_39:303)">
<path d="M73.1221 152.813C73.0601 159.879 72.5426 166.934 71.5728 173.934C71.5389 174.18 71.5019 174.425 71.4678 174.671L5.30688 174.301C5.11262 174.057 4.92142 173.81 4.73617 173.56C4.11848 172.733 3.53956 171.882 3.00811 171.002C0.453733 166.761 -0.715688 161.796 0.456186 158.37L0.477169 158.317C0.730132 157.567 1.12875 156.874 1.65012 156.278C4.32197 153.27 9.72418 153.771 14.6266 156.199C10.2295 151.385 6.7282 145.31 6.46217 139.888C6.20132 134.599 8.96631 130.82 11.9653 127.609C12.0637 127.503 12.1621 127.4 12.2605 127.297C12.3082 127.244 12.3588 127.194 12.4065 127.141C14.7463 124.694 17.4741 122.281 21.4225 122.573C25.7529 122.894 30.5539 126.522 33.9202 130.749C37.2866 134.974 39.5236 139.773 41.791 144.457C44.0614 149.138 46.5177 153.938 50.1609 157.939C45.2264 151.696 41.2479 144.593 39.7783 137.685C38.3086 130.777 39.602 124.142 43.9998 120.888C45.3349 119.931 46.8799 119.308 48.5053 119.07C48.695 119.038 48.8878 119.013 49.0835 118.99C53.1546 118.527 58.0154 119.935 62.151 123.302C66.7056 127.008 69.8632 132.503 71.4343 137.72C73.0053 142.936 73.1728 147.958 73.1221 152.813Z" fill="#F2F2F2"/>
<path d="M29.8357 174.439L28.5706 174.431C28.1689 174.18 27.7653 173.932 27.3598 173.687C27.1087 173.528 26.8548 173.376 26.6007 173.22C22.4043 170.657 18.1816 168.198 13.9327 165.843C9.68769 163.487 5.42131 161.239 1.13358 159.1C1.01992 159.05 0.927197 158.963 0.871513 158.852C0.81583 158.741 0.800705 158.614 0.828775 158.493C0.833368 158.478 0.84049 158.463 0.84986 158.449C0.909665 158.337 1.04333 158.29 1.23841 158.386C1.76433 158.65 2.29329 158.914 2.81917 159.183C7.11861 161.359 11.3996 163.644 15.6621 166.037C19.9217 168.429 24.1571 170.926 28.3681 173.529C28.4567 173.583 28.5453 173.64 28.6339 173.694C29.0354 173.942 29.4341 174.19 29.8357 174.439Z" fill="white"/>
<path d="M46.1479 174.53L45.3656 174.525C45.1891 174.278 45.0158 174.031 44.8393 173.784C40.6937 167.97 36.5491 162.155 32.4052 156.34C25.6192 146.821 18.8353 137.301 12.0533 127.782C12.0131 127.731 11.9833 127.672 11.9653 127.609C11.9073 127.399 12.0621 127.275 12.2605 127.297C12.3441 127.309 12.4243 127.339 12.4956 127.384C12.5668 127.429 12.6276 127.489 12.6739 127.56C16.4784 132.899 20.2821 138.235 24.0847 143.57C30.8354 153.042 37.5851 162.513 44.3339 171.982C44.7631 172.584 45.1924 173.188 45.6216 173.789C45.7981 174.036 45.9745 174.283 46.1479 174.53Z" fill="white"/>
<path d="M63.5763 169.986C63.5364 171.304 63.4491 172.602 63.3352 173.888C63.3131 174.134 63.291 174.38 63.2688 174.625L62.448 174.621C62.4731 174.375 62.4982 174.129 62.5203 173.883C62.6937 172.026 62.8168 170.147 62.8335 168.218C62.8553 162.869 62.3342 157.531 61.278 152.287C60.1553 146.641 58.5433 141.103 56.4603 135.736C54.274 130.076 51.638 124.6 48.5778 119.361C48.5201 119.275 48.4944 119.172 48.5053 119.07C48.5392 118.836 48.8506 118.767 49.0835 118.99C49.1295 119.034 49.1691 119.084 49.2012 119.139C49.5798 119.79 49.9515 120.443 50.3163 121.099C53.2638 126.367 55.7866 131.862 57.8608 137.531C59.8365 142.915 61.3393 148.462 62.3522 154.107C63.301 159.344 63.7112 164.665 63.5763 169.986Z" fill="white"/>
<path d="M292.768 136.12C292.768 132.946 280.825 130.373 266.093 130.373C251.361 130.373 239.418 132.946 239.418 136.12C239.418 138.154 244.328 139.94 251.729 140.961V172.447C251.729 173.155 252.01 173.833 252.511 174.334C253.011 174.834 253.689 175.115 254.397 175.115C255.104 175.115 255.783 174.834 256.283 174.334C256.783 173.833 257.064 173.155 257.064 172.447V141.528C259.884 141.747 262.923 141.866 266.093 141.866C269.262 141.866 272.301 141.747 275.121 141.528V172.447C275.121 173.155 275.402 173.833 275.902 174.334C276.403 174.834 277.081 175.115 277.789 175.115C278.496 175.115 279.175 174.834 279.675 174.334C280.175 173.833 280.456 173.155 280.456 172.447V140.961C287.858 139.94 292.768 138.154 292.768 136.12Z" fill="#CCCCCC"/>
<path d="M269.042 83.5195C275.388 83.5195 280.533 78.3738 280.533 72.0261C280.533 65.6784 275.388 60.5327 269.042 60.5327C262.696 60.5327 257.551 65.6784 257.551 72.0261C257.551 78.3738 262.696 83.5195 269.042 83.5195Z" fill="#2F2E41"/>
<path d="M240.446 170.363H235.415L233.022 150.953H240.447L240.446 170.363Z" fill="#D5A790"/>
<path d="M231.821 168.925H241.524V175.036H225.712C225.712 174.234 225.87 173.439 226.177 172.698C226.484 171.956 226.934 171.282 227.501 170.715C228.069 170.148 228.742 169.697 229.483 169.39C230.225 169.083 231.019 168.925 231.821 168.925Z" fill="#2F2E41"/>
<path d="M232.593 167.555L227.792 166.048L231.318 146.811L238.403 149.034L232.593 167.555Z" fill="#D5A790"/>
<path d="M224.794 163.6L234.052 166.506L232.223 172.336L217.136 167.6C217.376 166.835 217.764 166.124 218.279 165.508C218.794 164.893 219.425 164.385 220.136 164.014C220.847 163.642 221.625 163.414 222.424 163.343C223.223 163.272 224.028 163.359 224.794 163.6Z" fill="#2F2E41"/>
<path d="M234.229 159.81C234.009 159.81 233.791 159.77 233.584 159.693L229.883 158.304C229.467 158.147 229.122 157.846 228.91 157.455C228.698 157.065 228.634 156.611 228.728 156.177C229.66 151.986 232.836 137.717 234.575 130.064C236.638 120.986 266.726 119.299 268.005 119.232L268.111 119.226L271.495 123.48C272.718 127.412 272.331 130.479 270.343 132.596C264.543 138.773 247.227 134.94 245.162 134.455L235.959 158.621C235.824 158.971 235.587 159.272 235.279 159.484C234.97 159.696 234.604 159.81 234.229 159.81Z" fill="#2F2E41"/>
<path d="M239.564 162.683C239.344 162.683 239.126 162.644 238.919 162.566L235.218 161.178C234.802 161.02 234.457 160.719 234.245 160.328C234.033 159.938 233.969 159.484 234.063 159.05C234.995 154.859 238.171 140.59 239.91 132.937C241.973 123.859 272.061 122.172 273.34 122.105L273.446 122.099L276.83 126.354C278.053 130.286 277.666 133.353 275.678 135.47C269.878 141.646 252.562 137.814 250.497 137.329L241.294 161.494C241.159 161.844 240.922 162.145 240.614 162.357C240.305 162.57 239.939 162.683 239.564 162.683Z" fill="#2F2E41"/>
<path d="M228.856 103.566C228.992 103.748 229.113 103.94 229.219 104.141L249.459 106.274L252.373 102.279L258.976 105.889L253.253 115.585L228.43 109.254C227.804 109.865 227.007 110.27 226.144 110.417C225.282 110.563 224.396 110.443 223.603 110.074C222.81 109.704 222.149 109.102 221.707 108.347C221.265 107.592 221.063 106.72 221.128 105.848C221.193 104.975 221.523 104.144 222.072 103.463C222.621 102.782 223.365 102.285 224.204 102.037C225.043 101.789 225.937 101.803 226.768 102.076C227.599 102.349 228.327 102.869 228.856 103.566L228.856 103.566Z" fill="#D5A790"/>
<path d="M275.891 127.982C275.598 127.981 275.31 127.911 275.05 127.776C271.003 125.718 263.122 122.153 255.813 121.407C255.563 121.383 255.321 121.306 255.102 121.182C254.883 121.059 254.693 120.891 254.543 120.689C254.39 120.485 254.281 120.252 254.222 120.004C254.163 119.756 254.156 119.499 254.201 119.248C254.86 115.596 256.373 106.298 256.178 98.8464C256.121 96.5551 256.845 94.3125 258.23 92.4872C259.616 90.6619 261.582 89.3626 263.804 88.8029C265.142 88.4499 266.5 88.182 267.872 88.0008C269.449 87.801 271.05 87.9734 272.548 88.504C274.046 89.0346 275.399 89.9088 276.498 91.0564C277.597 92.2041 278.413 93.5933 278.879 95.1128C279.345 96.6324 279.449 98.24 279.182 99.8069C277.879 107.529 276.565 118.315 277.707 125.845C277.759 126.182 277.717 126.528 277.586 126.843C277.454 127.158 277.237 127.43 276.96 127.63C276.65 127.857 276.276 127.981 275.891 127.982Z" fill="#FF8761"/>
<path d="M256.553 108.34C256.301 108.34 256.051 108.288 255.82 108.187L250.547 105.904C250.098 105.709 249.745 105.344 249.564 104.888C249.384 104.433 249.392 103.925 249.586 103.475L253.662 94.0577C253.908 93.4885 254.263 92.9733 254.708 92.5416C255.153 92.1098 255.679 91.7701 256.256 91.5417C256.832 91.3132 257.448 91.2007 258.068 91.2104C258.688 91.2201 259.299 91.3518 259.868 91.5982C260.437 91.8445 260.952 92.2005 261.384 92.646C261.815 93.0914 262.154 93.6175 262.382 94.1941C262.61 94.7708 262.723 95.3868 262.713 96.0068C262.702 96.6268 262.57 97.2388 262.324 97.8078L258.248 107.225C258.105 107.556 257.868 107.838 257.567 108.036C257.266 108.234 256.913 108.339 256.553 108.34V108.34Z" fill="#FF8761"/>
<path d="M268.622 84.7971C274.189 84.7971 278.702 80.2833 278.702 74.7152C278.702 69.1472 274.189 64.6334 268.622 64.6334C263.055 64.6334 258.543 69.1472 258.543 74.7152C258.543 80.2833 263.055 84.7971 268.622 84.7971Z" fill="#D5A790"/>
<path d="M258.361 69.7619C263.136 72.6771 268.518 74.451 274.09 74.9457L272.432 72.9587C273.639 73.4051 274.909 73.6574 276.195 73.7062C277.48 73.6862 278.826 73.1914 279.555 72.1333C279.88 71.6074 280.073 71.0105 280.118 70.3937C280.163 69.7769 280.058 69.1584 279.812 68.591C279.306 67.4593 278.52 66.4758 277.527 65.734C275.768 64.3417 273.691 63.4066 271.482 63.0118C269.274 62.6169 267.002 62.7748 264.869 63.4712C263.406 63.9086 262.096 64.7492 261.088 65.8969C260.133 67.076 258.293 68.1265 258.783 69.5632L258.361 69.7619Z" fill="#2F2E41"/>
<path d="M270.317 61.6259C267.138 58.4013 263.291 55.913 259.047 54.3361C256.322 53.3265 253.357 52.7028 250.508 53.2761C247.66 53.8494 244.967 55.8203 244.172 58.6155C243.522 60.9012 244.193 63.3622 245.202 65.5139C246.21 67.6655 247.556 69.6607 248.372 71.8927C249.204 74.17 249.454 76.6192 249.1 79.0178C248.745 81.4164 247.798 83.6885 246.343 85.6279C244.888 87.5673 242.972 89.1125 240.768 90.1233C238.565 91.1341 236.144 91.5785 233.725 91.416C236.524 91.7914 239.104 93.1068 241.839 93.807C244.574 94.5072 247.803 94.4597 249.836 92.4996C251.987 90.4256 252.03 87.0537 251.926 84.0673C251.771 79.628 251.617 75.1886 251.462 70.7493C251.383 68.4853 251.316 66.1487 252.132 64.0356C252.948 61.9225 254.888 60.0722 257.153 60.0914C258.869 60.106 260.389 61.146 261.765 62.1717C263.142 63.1974 264.599 64.2917 266.308 64.4443C268.018 64.5969 269.97 63.3313 269.842 61.6192" fill="#2F2E41"/>
<path d="M251.676 125.392C251.008 125.392 250.349 125.243 249.745 124.956C249.142 124.67 248.61 124.253 248.187 123.736C247.764 123.219 247.46 122.615 247.299 121.967C247.138 121.318 247.122 120.642 247.253 119.987C247.384 119.332 247.659 118.715 248.058 118.179C248.457 117.643 248.969 117.202 249.559 116.888C250.148 116.574 250.8 116.395 251.467 116.363C252.134 116.332 252.8 116.448 253.417 116.705H253.417C253.603 116.783 253.782 116.875 253.955 116.978L272.316 108.733L272.832 103.752L280.747 103.54L280.694 111.832C280.684 112.793 280.365 113.725 279.784 114.489C279.203 115.254 278.391 115.811 277.468 116.078L255.996 122.191C255.954 122.333 255.905 122.473 255.849 122.609C255.504 123.432 254.924 124.136 254.182 124.631C253.44 125.126 252.568 125.391 251.676 125.392V125.392Z" fill="#D5A790"/>
<path d="M280.076 107.605C279.851 107.719 279.605 107.785 279.353 107.8L273.619 108.153C273.13 108.182 272.65 108.017 272.283 107.693C271.916 107.368 271.693 106.912 271.662 106.423L271.033 96.1803C270.994 95.5609 271.077 94.9399 271.278 94.3529C271.479 93.7658 271.794 93.2241 272.204 92.7588C272.615 92.2936 273.113 91.9138 273.67 91.6413C274.228 91.3689 274.834 91.209 275.453 91.1709C276.072 91.1328 276.693 91.2172 277.279 91.4193C277.866 91.6213 278.407 91.9371 278.871 92.3485C279.336 92.76 279.715 93.259 279.986 93.817C280.258 94.375 280.416 94.981 280.454 95.6005L281.083 105.843C281.105 106.203 281.021 106.561 280.842 106.874C280.664 107.187 280.397 107.441 280.076 107.605L280.076 107.605Z" fill="#FF8761"/>
<path d="M267.613 126.428H235.193C234.812 126.428 234.446 126.277 234.177 126.007C233.908 125.738 233.756 125.372 233.756 124.991C233.756 124.61 233.908 124.245 234.177 123.975C234.446 123.706 234.812 123.555 235.193 123.555H267.613C267.994 123.555 268.359 123.706 268.629 123.975C268.898 124.245 269.049 124.61 269.049 124.991C269.049 125.372 268.898 125.738 268.629 126.007C268.359 126.277 267.994 126.428 267.613 126.428Z" fill="#3F3D56"/>
<path d="M221.034 123.76V103.646C221.035 102.939 221.316 102.261 221.816 101.761C222.317 101.26 222.995 100.979 223.702 100.978H260.226C260.933 100.979 261.611 101.26 262.111 101.761C262.611 102.261 262.893 102.939 262.894 103.646V123.76C262.893 124.467 262.611 125.145 262.111 125.646C261.611 126.146 260.933 126.427 260.226 126.428H223.702C222.995 126.427 222.317 126.146 221.816 125.646C221.316 125.145 221.035 124.467 221.034 123.76Z" fill="#3F3D56"/>
<path d="M241.964 116.166C243.324 116.166 244.426 115.063 244.426 113.703C244.426 112.343 243.324 111.24 241.964 111.24C240.604 111.24 239.502 112.343 239.502 113.703C239.502 115.063 240.604 116.166 241.964 116.166Z" fill="white"/>
<path d="M113.587 90.0336C113.254 89.5301 112.815 89.1056 112.301 88.7901C111.787 88.4746 111.209 88.2757 110.61 88.2075C110.011 88.1392 109.403 88.2033 108.831 88.3951C108.259 88.5869 107.736 88.9018 107.299 89.3177L94.2678 82.5899L95.0779 90.1692L107.329 95.3961C108.076 96.0843 109.049 96.4746 110.065 96.4928C111.08 96.5111 112.067 96.156 112.839 95.4951C113.61 94.8341 114.112 93.913 114.25 92.9064C114.388 91.8999 114.152 90.8777 113.587 90.0336H113.587Z" fill="#D5A790"/>
<path d="M102.005 93.0844C101.77 93.1925 101.514 93.2499 101.254 93.2527C100.995 93.2554 100.738 93.2036 100.5 93.1004L88.1217 87.7297C83.8893 85.8939 80.4677 82.583 78.4932 78.4128L71.9858 64.6735C71.5055 64.0564 71.1516 63.3506 70.9442 62.5966C70.7369 61.8425 70.6802 61.055 70.7773 60.279C70.8745 59.503 71.1236 58.7538 71.5105 58.0742C71.8973 57.3946 72.4143 56.7979 73.0319 56.3183C73.6495 55.8387 74.3555 55.4855 75.1096 55.2791C75.8638 55.0726 76.6512 55.0168 77.4269 55.115C78.2026 55.2131 78.9513 55.4632 79.6303 55.851C80.3093 56.2388 80.9052 56.7566 81.3839 57.3749L92.8224 78.6023L103.384 86.5827C103.687 86.8122 103.911 87.129 104.028 87.4903C104.144 87.8516 104.147 88.2399 104.036 88.6028L102.999 91.952C102.888 92.3111 102.669 92.6278 102.374 92.8598C102.26 92.9489 102.137 93.0243 102.005 93.0844Z" fill="#CCCCCC"/>
<path d="M71.6993 48.5155C77.266 48.5155 81.7788 44.0017 81.7788 38.4337C81.7788 32.8656 77.266 28.3518 71.6993 28.3518C66.1325 28.3518 61.6198 32.8656 61.6198 38.4337C61.6198 44.0017 66.1325 48.5155 71.6993 48.5155Z" fill="#D5A790"/>
<path d="M75.7821 170.689H80.813L83.2067 151.278H75.7808L75.7821 170.689Z" fill="#D5A790"/>
<path d="M90.5164 175.361L74.704 175.362L74.7037 169.251L84.4068 169.251C86.0271 169.251 87.5811 169.894 88.7268 171.04C89.8726 172.186 90.5163 173.74 90.5164 175.361L90.5164 175.361Z" fill="#2F2E41"/>
<path d="M59.3666 170.689H64.3976L66.7913 151.278H59.3654L59.3666 170.689Z" fill="#D5A790"/>
<path d="M74.101 175.361L58.2886 175.362L58.2883 169.251L67.9914 169.251C69.6117 169.251 71.1657 169.894 72.3114 171.04C73.4572 172.186 74.1009 173.74 74.101 175.361L74.101 175.361Z" fill="#2F2E41"/>
<path d="M57.6097 165.133C57.4364 164.935 57.3073 164.702 57.2312 164.45C57.1551 164.198 57.1338 163.933 57.1685 163.672L65.9773 97.5908L87.8625 101.308L90.1982 99.9066L84.1584 162.605C84.1081 163.028 83.9135 163.421 83.6072 163.718C83.301 164.014 82.9019 164.196 82.4773 164.232L75.8506 164.784C75.5871 164.807 75.322 164.772 75.0732 164.682C74.8243 164.593 74.5975 164.451 74.4082 164.267C74.2188 164.082 74.0713 163.859 73.9756 163.613C73.8799 163.366 73.8383 163.102 73.8535 162.838L75.5691 132.979C75.5722 132.928 75.5563 132.878 75.5245 132.838C75.4928 132.799 75.4475 132.772 75.3973 132.764C75.3472 132.756 75.2958 132.766 75.2531 132.794C75.2104 132.821 75.1794 132.864 75.1662 132.913L66.6781 164.397C66.572 164.789 66.3399 165.135 66.0177 165.382C65.6955 165.629 65.3011 165.763 64.8951 165.763H58.9991C58.736 165.763 58.4759 165.707 58.2362 165.598C57.9966 165.49 57.783 165.331 57.6097 165.133Z" fill="#2F2E41"/>
<path d="M72.7662 102.216C72.515 101.989 72.1921 101.856 71.8535 101.842C71.515 101.828 71.1821 101.933 70.9129 102.139L66.5374 105.543C66.2993 105.729 66.0192 105.853 65.7218 105.906C65.4244 105.958 65.1187 105.936 64.8316 105.843C64.5444 105.749 64.2846 105.587 64.0749 105.369C63.8652 105.152 63.712 104.887 63.6289 104.596C61.4826 97.0781 56.6201 78.1539 57.818 64.8345C58.497 57.2847 65.015 51.5468 72.3477 52.0283C77.3608 52.3626 80.6588 55.2552 82.1502 60.6255C85.8119 73.811 89.836 97.9973 90.6054 102.712C90.6662 103.078 90.615 103.454 90.4585 103.79C90.302 104.126 90.0476 104.407 89.7286 104.596C87.6584 105.839 85.2931 106.505 82.8786 106.524C79.957 106.524 76.4539 105.507 72.7662 102.216Z" fill="#CCCCCC"/>
<path d="M74.4171 106.907C74.4661 106.305 74.3827 105.7 74.1727 105.135C73.9627 104.569 73.6312 104.056 73.2017 103.632C72.7721 103.209 72.2549 102.884 71.6864 102.682C71.118 102.48 70.5121 102.405 69.9116 102.462L63.8084 89.1246L59.7696 95.5886L66.1845 107.263C66.3477 108.266 66.8731 109.174 67.6609 109.815C68.4488 110.457 69.4444 110.787 70.4592 110.743C71.474 110.699 72.4374 110.284 73.1669 109.577C73.8963 108.87 74.3412 107.92 74.4171 106.907H74.4171Z" fill="#D5A790"/>
<path d="M63.422 102.159C63.1697 102.098 62.933 101.985 62.7271 101.827C62.5213 101.669 62.351 101.47 62.2273 101.242L55.801 89.3752C53.6033 85.3182 52.9537 80.6009 53.973 76.1007L57.3294 61.2729C57.3324 60.491 57.4895 59.7173 57.7916 58.9961C58.0938 58.275 58.5351 57.6205 59.0903 57.07C59.6455 56.5195 60.3037 56.0839 61.0273 55.788C61.751 55.4921 62.5258 55.3418 63.3075 55.3456C64.0893 55.3494 64.8626 55.5073 65.5833 55.8103C66.304 56.1132 66.9579 56.5552 67.5077 57.1111C68.0575 57.667 68.4924 58.3258 68.7875 59.0499C69.0826 59.7739 69.2321 60.5491 69.2275 61.331L65.1313 85.0948L68.5185 97.8938C68.6147 98.261 68.596 98.6489 68.4647 99.0051C68.3334 99.3613 68.096 99.6685 67.7844 99.8853L64.9023 101.881C64.5932 102.095 64.2261 102.209 63.8502 102.209C63.706 102.209 63.5623 102.192 63.422 102.159Z" fill="#CCCCCC"/>
<path opacity="0.2" d="M68.4099 71.353L64.7164 86.9513L70.0514 100.087L66.358 87.3617L68.4099 71.353Z" fill="black"/>
<path d="M65.9474 46.7241C65.0508 46.7407 64.1598 46.5795 63.3259 46.2497C62.959 46.1082 62.5781 45.992 62.2118 45.8504C58.9773 44.6005 56.8466 41.1549 56.7703 37.6874C56.694 34.2199 58.4893 30.8544 61.1551 28.6364C63.8209 26.4184 67.2739 25.2797 70.7314 25.0164C74.4557 24.7328 78.6494 25.6774 80.7306 28.7798C81.2845 29.6056 81.6719 30.6075 81.3437 31.6045C81.2454 31.9054 81.0698 32.1752 80.8345 32.3869C79.9051 33.214 78.9785 32.5921 78.0311 32.5371C76.7288 32.4616 75.5592 33.5159 75.1388 34.7511C74.7184 35.9862 74.9034 37.346 75.2429 38.6058C75.5015 39.3638 75.6645 40.1512 75.7282 40.9496C75.7555 41.35 75.6803 41.7507 75.5094 42.1138C75.3386 42.477 75.0779 42.7904 74.752 43.0245C73.9383 43.5165 72.8696 43.2317 72.0554 42.7405C71.2412 42.2493 70.5376 41.5664 69.6581 41.2049C68.7786 40.8435 67.597 40.9236 67.0851 41.7251C66.9224 42.0167 66.8123 42.3347 66.7598 42.6645C66.3008 44.7559 66.4063 44.6327 65.9474 46.724L65.9474 46.7241Z" fill="#2F2E41"/>
<path d="M153.339 80.9379C153.172 80.7263 153.055 80.4793 152.998 80.2157C152.941 79.9522 152.944 79.679 153.008 79.417C154.539 73.0044 154.539 66.3214 153.008 59.9088C152.944 59.6468 152.941 59.3736 152.998 59.1101C153.055 58.8465 153.172 58.5996 153.339 58.3879C153.503 58.1793 153.712 58.0107 153.951 57.8951C154.189 57.7795 154.451 57.7198 154.716 57.7207H171.079C171.497 57.7214 171.902 57.8706 172.22 58.1417C172.539 58.4127 172.751 58.788 172.818 59.2007C173.886 66.1347 173.886 73.1912 172.818 80.1251C172.751 80.5378 172.539 80.9131 172.22 81.1841C171.902 81.4552 171.497 81.6044 171.079 81.6052H154.716C154.451 81.606 154.189 81.5463 153.951 81.4307C153.712 81.3151 153.503 81.1465 153.339 80.9379Z" fill="#E6E6E6"/>
<path d="M128.026 23.217C127.859 23.0054 127.742 22.7585 127.685 22.495C127.628 22.2314 127.631 21.9583 127.695 21.6963C129.226 15.2837 129.226 8.6008 127.695 2.18819C127.631 1.92622 127.628 1.65308 127.685 1.38956C127.742 1.12605 127.859 0.879105 128.026 0.667539C128.19 0.458824 128.399 0.290212 128.638 0.174532C128.876 0.0588515 129.138 -0.000840196 129.403 1.14233e-06H145.766C146.185 0.000844043 146.589 0.150059 146.907 0.421092C147.226 0.692125 147.438 1.06738 147.505 1.48007C148.573 8.41401 148.573 15.4705 147.505 22.4045C147.438 22.8171 147.226 23.1924 146.907 23.4634C146.589 23.7345 146.185 23.8837 145.766 23.8845H129.403C129.138 23.8854 128.876 23.8257 128.638 23.71C128.399 23.5943 128.19 23.4257 128.026 23.217Z" fill="#E6E6E6"/>
<path d="M168.29 42.5251C167.223 35.5912 167.223 28.5347 168.29 21.6007C168.358 21.188 168.57 20.8127 168.888 20.5417C169.206 20.2707 169.611 20.1214 170.029 20.1207H186.392C186.657 20.1198 186.919 20.1795 187.157 20.2952C187.396 20.4109 187.605 20.5795 187.769 20.7882C187.936 20.9998 188.053 21.2467 188.11 21.5102C188.168 21.7737 188.164 22.0469 188.1 22.3089C186.569 28.7214 186.569 35.4044 188.1 41.817C188.164 42.079 188.167 42.3521 188.11 42.6156C188.053 42.8791 187.936 43.1261 187.769 43.3376C187.605 43.5464 187.396 43.715 187.157 43.8306C186.919 43.9463 186.657 44.006 186.392 44.0052H170.029C169.611 44.0044 169.206 43.8552 168.888 43.5841C168.57 43.3131 168.358 42.9378 168.29 42.5251Z" fill="#FF8761"/>
<path d="M99.7874 41.7945C98.7201 34.8606 98.7201 27.8041 99.7874 20.8701C99.8551 20.4574 100.067 20.0822 100.385 19.8111C100.704 19.5401 101.108 19.3909 101.526 19.3901H117.889C118.154 19.3892 118.416 19.4489 118.655 19.5646C118.894 19.6803 119.103 19.8489 119.266 20.0576C119.433 20.2692 119.55 20.5161 119.608 20.7796C119.665 21.0431 119.662 21.3163 119.598 21.5782C118.067 27.9908 118.067 34.6738 119.597 41.0864C119.662 41.3484 119.665 41.6215 119.608 41.885C119.55 42.1485 119.433 42.3955 119.266 42.607C119.103 42.8158 118.894 42.9844 118.655 43.1C118.416 43.2157 118.154 43.2754 117.889 43.2746H101.526C101.108 43.2737 100.704 43.1245 100.385 42.8535C100.067 42.5824 99.8551 42.2072 99.7874 41.7945Z" fill="#FA3C00"/>
<path d="M103.835 90.0965C103.665 89.8814 103.546 89.6303 103.488 89.3625C103.429 89.0946 103.433 88.8169 103.498 88.5506C105.054 82.0326 105.054 75.2399 103.498 68.722C103.433 68.4556 103.429 68.178 103.488 67.9101C103.546 67.6422 103.665 67.3912 103.835 67.1761C104.001 66.964 104.213 66.7927 104.456 66.6752C104.699 66.5576 104.965 66.497 105.234 66.4978H121.866C122.291 66.4986 122.702 66.6503 123.025 66.9258C123.349 67.2013 123.565 67.5827 123.633 68.0022C124.718 75.0501 124.718 82.2225 123.633 89.2703C123.565 89.6898 123.349 90.0713 123.025 90.3468C122.702 90.6223 122.291 90.7739 121.866 90.7747H105.234C104.965 90.7756 104.699 90.7149 104.456 90.5974C104.213 90.4799 104.001 90.3085 103.835 90.0965Z" fill="#FF8761"/>
<path d="M5.1634 175.738H322.511C322.641 175.738 322.765 175.687 322.857 175.595C322.948 175.503 323 175.379 323 175.249C323 175.12 322.948 174.995 322.857 174.904C322.765 174.812 322.641 174.761 322.511 174.761H5.1634C5.09911 174.76 5.03542 174.773 4.97597 174.797C4.91652 174.822 4.86249 174.858 4.81696 174.903C4.77144 174.949 4.73532 175.002 4.71067 175.062C4.68603 175.121 4.67334 175.185 4.67334 175.249C4.67334 175.314 4.68603 175.377 4.71067 175.437C4.73532 175.496 4.77144 175.55 4.81696 175.595C4.86249 175.641 4.91652 175.677 4.97597 175.701C5.03542 175.726 5.09911 175.738 5.1634 175.738Z" fill="#3F3D56"/>
<path d="M118.656 75.4552H109.895C109.569 75.4549 109.256 75.325 109.025 75.0941C108.794 74.8633 108.664 74.5503 108.664 74.2238V73.7009C108.664 73.3744 108.794 73.0614 109.025 72.8305C109.256 72.5996 109.569 72.4698 109.895 72.4694H118.656C118.983 72.4698 119.296 72.5996 119.527 72.8305C119.757 73.0614 119.887 73.3744 119.888 73.7009V74.2238C119.887 74.5503 119.757 74.8633 119.527 75.0941C119.296 75.325 118.983 75.4549 118.656 75.4552Z" fill="white"/>
<path d="M118.656 80.6057H109.895C109.569 80.6053 109.256 80.4755 109.025 80.2446C108.794 80.0137 108.664 79.7007 108.664 79.3742V78.8513C108.664 78.5248 108.794 78.2118 109.025 77.981C109.256 77.7501 109.569 77.6202 109.895 77.6199H118.656C118.983 77.6202 119.296 77.7501 119.527 77.981C119.757 78.2118 119.887 78.5248 119.888 78.8513V79.3742C119.887 79.7007 119.757 80.0137 119.527 80.2446C119.296 80.4755 118.983 80.6053 118.656 80.6057Z" fill="white"/>
<path d="M112.854 29.5193H104.267C103.941 29.519 103.628 29.3891 103.397 29.1582C103.166 28.9274 103.036 28.6144 103.036 28.2879V27.8068C103.036 27.4804 103.166 27.1673 103.397 26.9365C103.628 26.7056 103.941 26.5758 104.267 26.5754H112.854C113.18 26.5758 113.493 26.7056 113.724 26.9365C113.955 27.1673 114.085 27.4804 114.085 27.8068V28.2879C114.085 28.6144 113.955 28.9274 113.724 29.1582C113.493 29.3891 113.18 29.519 112.854 29.5193Z" fill="white"/>
<path d="M167.714 65.6947H159.127C158.801 65.6943 158.488 65.5645 158.257 65.3336C158.026 65.1028 157.896 64.7897 157.896 64.4633V63.982C157.896 63.6555 158.026 63.3425 158.257 63.1117C158.488 62.8808 158.801 62.7509 159.127 62.7506H167.714C168.04 62.7509 168.353 62.8808 168.584 63.1117C168.815 63.3425 168.945 63.6555 168.945 63.982V64.4633C168.945 64.7897 168.815 65.1028 168.584 65.3336C168.353 65.5645 168.04 65.6943 167.714 65.6947Z" fill="white"/>
<path d="M167.714 71.7753H159.127C158.801 71.775 158.488 71.6451 158.257 71.4143C158.026 71.1834 157.896 70.8704 157.896 70.5439V70.0627C157.896 69.7362 158.026 69.4232 158.257 69.1923C158.488 68.9614 158.801 68.8316 159.127 68.8312H167.714C168.04 68.8316 168.353 68.9614 168.584 69.1923C168.815 69.4232 168.945 69.7362 168.945 70.0627V70.5439C168.945 70.8704 168.815 71.1834 168.584 71.4143C168.353 71.6451 168.04 71.775 167.714 71.7753Z" fill="white"/>
<path d="M167.714 77.856H159.127C158.801 77.8556 158.488 77.7258 158.257 77.4949C158.026 77.264 157.896 76.951 157.896 76.6245V76.1433C157.896 75.8168 158.026 75.5038 158.257 75.2729C158.488 75.0421 158.801 74.9122 159.127 74.9119H167.714C168.04 74.9122 168.353 75.0421 168.584 75.2729C168.815 75.5038 168.945 75.8168 168.945 76.1433V76.6245C168.945 76.951 168.815 77.264 168.584 77.4949C168.353 77.7258 168.04 77.8556 167.714 77.856Z" fill="white"/>
<path d="M112.854 34.5866H104.267C103.941 34.5862 103.628 34.4564 103.397 34.2255C103.166 33.9946 103.036 33.6816 103.036 33.3551V32.8739C103.036 32.5474 103.166 32.2344 103.397 32.0035C103.628 31.7727 103.941 31.6428 104.267 31.6425H112.854C113.18 31.6428 113.493 31.7727 113.724 32.0035C113.955 32.2344 114.085 32.5474 114.085 32.8739V33.3551C114.085 33.6816 113.955 33.9946 113.724 34.2255C113.493 34.4564 113.18 34.5862 112.854 34.5866Z" fill="white"/>
<path d="M142.474 8.98748H133.888C133.561 8.98712 133.248 8.85727 133.017 8.6264C132.787 8.39554 132.657 8.08253 132.656 7.75604V7.27481C132.657 6.94832 132.787 6.6353 133.017 6.40444C133.248 6.17358 133.561 6.04372 133.888 6.04337H142.474C142.801 6.04372 143.113 6.17358 143.344 6.40444C143.575 6.6353 143.705 6.94832 143.705 7.27481V7.75604C143.705 8.08253 143.575 8.39554 143.344 8.6264C143.113 8.85727 142.801 8.98712 142.474 8.98748Z" fill="white"/>
<path d="M181.655 30.7568H173.068C172.742 30.7564 172.429 30.6266 172.198 30.3957C171.967 30.1648 171.838 29.8518 171.837 29.5253V29.0441C171.838 28.7176 171.967 28.4046 172.198 28.1737C172.429 27.9429 172.742 27.813 173.068 27.8127H181.655C181.982 27.813 182.295 27.9429 182.525 28.1737C182.756 28.4046 182.886 28.7176 182.886 29.0441V29.5253C182.886 29.8518 182.756 30.1648 182.525 30.3957C182.295 30.6266 181.982 30.7564 181.655 30.7568Z" fill="white"/>
</g>
<defs>
<clipPath id="clip0_39:303">
<rect width="323" height="175.738" fill="white"/>
</clipPath>
</defs>
</svg>
