<svg width="88" height="61" viewBox="0 0 88 61" fill="none" xmlns="http://www.w3.org/2000/svg">
<g clip-path="url(#clip0_37:55)">
<path d="M38.6549 6.57139C41.7198 4.12505 45.2372 2.30716 49.0055 1.22179C66.7759 -3.9482 85.062 7.83588 87.6924 26.1487C90.0968 42.8662 78.0887 58.5167 61.348 60.5903C52.6905 61.6574 45.2458 58.9453 38.5571 53.6437C34.5217 50.4424 31.0768 46.6472 27.5982 42.8804C25.5263 40.6396 23.4081 38.4343 21.3149 36.2219C20.2069 35.0445 19.9864 33.4582 20.7333 32.1314C21.4589 30.8385 22.9866 30.088 24.4485 30.5415C25.2545 30.8195 25.9799 31.2909 26.5613 31.9144C29.9991 35.5141 33.3515 39.1937 36.7857 42.7968C39.7771 45.9358 42.9854 48.8223 46.7451 51.0596C55.6054 56.3416 66.4967 54.3586 73.3526 47.9651C80.5252 41.278 82.9563 32.9851 80.1321 23.6126C77.3382 14.3522 70.7756 8.82292 61.2609 7.10671C55.6534 6.09477 50.2896 7.17607 45.3863 10.1817C44.8528 10.5107 44.5167 10.4893 43.9991 10.1265C42.2758 8.91007 40.5027 7.78786 38.6549 6.57139Z" fill="white"/>
<path d="M34.4417 59.1445C32.3974 59.9705 30.2435 60.4935 28.0481 60.6971C22.0368 61.3292 15.9972 59.7959 11.0155 56.3728C6.03371 52.9497 2.43675 47.8615 0.871454 42.0232C-2.9967 27.7956 6.42381 13.0681 20.8969 10.5338C28.0108 9.2889 34.1767 11.2843 39.8429 15.4246C43.8337 18.343 47.2608 21.8697 50.6506 25.4391C51.4651 26.2999 52.3205 27.1215 53.1297 27.9876C54.4991 29.4495 54.4885 31.5285 53.1297 32.8517C51.771 34.1749 49.6937 34.1375 48.2692 32.7201C45.1213 29.5847 42.0446 26.3657 38.8274 23.3121C36.1597 20.7706 33.1523 18.576 29.5331 17.5765C23.4864 15.9048 18.0123 17.3542 13.3723 21.3789C7.42686 26.5364 5.36918 33.1754 7.60115 40.7178C9.83311 48.2603 15.1685 52.6335 22.9333 53.8678C24.573 54.1292 26.2928 53.8678 27.9752 53.8678C28.274 53.8678 28.6635 53.8678 28.8644 54.0456C30.7122 55.7032 32.5334 57.3945 34.4417 59.1445Z" fill="white"/>
</g>
<defs>
<clipPath id="clip0_37:55">
<rect width="88" height="60.8376" fill="white"/>
</clipPath>
</defs>
</svg>
