<svg width="88" height="89" viewBox="0 0 88 89" fill="none" xmlns="http://www.w3.org/2000/svg">
<g clip-path="url(#clip0_79:111)">
<path d="M43.9161 88.0061C19.6806 87.9916 -0.0165679 68.2012 1.04574e-05 43.8932C0.0186611 19.6473 19.8091 -0.0249661 44.1399 -9.85202e-05C68.365 0.024769 88.0352 19.8297 88.0041 44.1646C87.9689 68.3421 68.1847 88.0206 43.9161 88.0061ZM32.0771 49.0698C31.7931 49.0884 31.6522 49.3039 31.4864 49.4697C29.5551 51.3928 27.6465 53.3366 25.684 55.2348C25.1597 55.7426 25.2882 56.0223 25.7358 56.4679C31.6253 62.3352 37.503 68.2143 43.369 74.1052C43.8415 74.5797 44.1212 74.6067 44.6124 74.1176C50.5004 68.1991 56.403 62.2951 62.3201 56.4057C62.774 55.9539 62.774 55.6887 62.3201 55.2473C60.4198 53.3822 58.534 51.5171 56.6876 49.6086C56.1281 49.0283 55.7986 49.0076 55.2163 49.6086C51.7556 53.1315 48.2389 56.5839 44.7781 60.0985C44.1834 60.7036 43.8518 60.7451 43.2343 60.1172C39.7756 56.5943 36.2734 53.1252 32.7796 49.6417C32.5682 49.42 32.3962 49.1402 32.0771 49.0698ZM62.7284 32.222C62.6745 31.8801 62.4258 31.7247 62.2351 31.534C56.3816 25.6736 50.5288 19.8138 44.6766 13.9547C44.1917 13.4657 43.8974 13.3745 43.3607 13.9133C37.4989 19.8138 31.6191 25.6964 25.7213 31.5609C25.2882 31.992 25.2157 32.2448 25.6923 32.7111C27.614 34.5969 29.5067 36.511 31.3704 38.4534C31.9299 39.0419 32.247 38.9466 32.7692 38.4182C36.2134 34.9326 39.7052 31.4926 43.1307 27.9987C43.7689 27.35 44.1274 27.2526 44.8237 27.9655C48.2741 31.4884 51.7929 34.9533 55.266 38.4617C55.7551 38.9549 56.0659 39.0336 56.5861 38.4907C58.476 36.5262 60.4115 34.6051 62.3263 32.6655C62.4818 32.5163 62.6102 32.3567 62.7284 32.222ZM44.0984 50.9162C44.1938 50.8333 44.3305 50.7318 44.4507 50.6136C46.5002 48.5683 48.5394 46.5105 50.6034 44.4796C51.0178 44.0652 50.8976 43.8206 50.5453 43.4746C48.5352 41.4852 46.5403 39.4854 44.5606 37.4753C44.1627 37.0608 43.9036 37.0194 43.4788 37.4525C41.4936 39.4709 39.4917 41.4707 37.4733 43.4518C37.0588 43.8517 37.0215 44.1087 37.4547 44.5335C39.4731 46.5126 41.4604 48.5227 43.4643 50.5204C43.6259 50.6841 43.7627 50.9058 44.0984 50.9162ZM27.0559 44.0175C26.9163 43.8192 26.7647 43.6296 26.602 43.4497C24.6541 41.4935 22.6875 39.5559 20.754 37.5851C20.3189 37.1437 20.0495 37.2307 19.6619 37.6224C17.7278 39.5897 15.7743 41.5411 13.8015 43.4766C13.3601 43.9097 13.4451 44.175 13.8409 44.5646C15.7833 46.478 17.7112 48.4059 19.6246 50.3484C20.0391 50.7753 20.323 50.8664 20.7913 50.3857C22.6958 48.4356 24.6417 46.525 26.5668 44.5957C26.7388 44.4175 26.8756 44.231 27.0559 44.0175ZM74.6088 44.003C74.4843 43.8285 74.3501 43.661 74.2068 43.5015C72.234 41.5225 70.2446 39.5642 68.2862 37.5623C67.8366 37.1043 67.5692 37.2598 67.1962 37.6369C65.28 39.5711 63.35 41.4962 61.4062 43.4124C60.9565 43.8517 60.9483 44.1356 61.4062 44.5812C63.3542 46.4849 65.2828 48.4108 67.1921 50.3587C67.6356 50.8105 67.9153 50.8188 68.3608 50.3587C70.2674 48.4108 72.2091 46.496 74.1343 44.5563C74.3001 44.4175 74.4368 44.2102 74.6088 44.003Z" fill="white"/>
</g>
<defs>
<clipPath id="clip0_79:111">
<rect width="88" height="88.0062" fill="white"/>
</clipPath>
</defs>
</svg>
