<svg width="94" height="86" viewBox="0 0 94 86" fill="none" xmlns="http://www.w3.org/2000/svg">
<path d="M54.4253 33.8289C54.4253 30.1168 51.8795 28.0676 47.408 28.0676H39.183V40.027H46.1187C51.4715 40.0102 54.4253 37.793 54.4253 33.8289ZM84.3715 31.6789C82.8212 26.4887 82.5927 20.1227 82.7722 15.2012C82.9517 10.0781 79.0677 5.375 73.8455 5.375H20.1871C14.9486 5.375 11.0809 10.0949 11.2604 15.2012C11.4236 20.1227 11.2114 26.4887 9.66108 31.6789C8.09442 36.8859 5.46699 40.1781 1.14233 40.598V45.3852C5.45067 45.8051 8.09442 49.0973 9.66108 54.3043C11.2114 59.4945 11.4399 65.8605 11.2604 70.782C11.0809 75.9051 14.9649 80.6082 20.1871 80.6082H73.8291C79.0677 80.6082 82.9354 75.8883 82.7559 70.782C82.5927 65.8605 82.8048 59.4945 84.3552 54.3043C85.9219 49.0973 88.5493 45.8051 92.8576 45.3852V40.598C88.5656 40.1781 85.9219 36.8859 84.3715 31.6789ZM48.9909 63.0051H33.0142V22.9781H48.9094C55.9757 22.9781 60.6104 26.9086 60.6104 32.9555C60.6104 37.2051 57.4934 41.0012 53.5114 41.6563V41.8746C58.9295 42.4793 62.5687 46.3426 62.5687 51.6672C62.5687 58.7387 57.4607 63.0051 48.9909 63.0051ZM47.359 44.7469H39.183V57.9156H47.718C53.2993 57.9156 56.2531 55.6145 56.2531 51.2809C56.2531 46.9641 53.2177 44.7469 47.359 44.7469Z" fill="white"/>
</svg>
