<svg width="50" height="50" viewBox="0 0 50 50" fill="none" xmlns="http://www.w3.org/2000/svg">
<path d="M33.3333 21.9375C32.7292 21.3333 31.7292 21.3333 31.125 21.9375L22.0625 31L18.75 27.6875C18.1458 27.0833 17.1458 27.0833 16.5417 27.6875C15.9375 28.2916 15.9375 29.2916 16.5417 29.8958L20.5833 33.9375C21.3958 34.75 22.7083 34.75 23.5208 33.9375L33.3125 24.1458C33.9375 23.5416 33.9375 22.5416 33.3333 21.9375V21.9375ZM39.5833 6.24998H37.5V4.16665C37.5 3.02081 36.5625 2.08331 35.4167 2.08331C34.2708 2.08331 33.3333 3.02081 33.3333 4.16665V6.24998H16.6667V4.16665C16.6667 3.02081 15.7292 2.08331 14.5833 2.08331C13.4375 2.08331 12.5 3.02081 12.5 4.16665V6.24998H10.4167C8.10417 6.24998 6.27083 8.12498 6.27083 10.4166L6.25 39.5833C6.25 41.875 8.10417 43.75 10.4167 43.75H39.5833C41.875 43.75 43.75 41.875 43.75 39.5833V10.4166C43.75 8.12498 41.875 6.24998 39.5833 6.24998ZM37.5 39.5833H12.5C11.3542 39.5833 10.4167 38.6458 10.4167 37.5V16.6666H39.5833V37.5C39.5833 38.6458 38.6458 39.5833 37.5 39.5833Z" fill="white"/>
</svg>
