<svg width="24" height="24" viewBox="0 0 24 24" fill="none" xmlns="http://www.w3.org/2000/svg">
<g clip-path="url(#clip0_80:225)">
<path d="M11.475 0.375C4.97344 0.375 0 5.31094 0 11.8125C0 17.0109 3.27188 21.4594 7.94531 23.025C8.54531 23.1328 8.75625 22.7625 8.75625 22.4578C8.75625 22.1672 8.74219 20.5641 8.74219 19.5797C8.74219 19.5797 5.46094 20.2828 4.77188 18.1828C4.77188 18.1828 4.2375 16.8187 3.46875 16.4672C3.46875 16.4672 2.39531 15.7312 3.54375 15.7453C3.54375 15.7453 4.71094 15.8391 5.35312 16.9547C6.37969 18.7641 8.1 18.2438 8.77031 17.9344C8.87813 17.1844 9.18281 16.6641 9.52031 16.3547C6.9 16.0641 4.25625 15.6844 4.25625 11.175C4.25625 9.88594 4.6125 9.23906 5.3625 8.41406C5.24063 8.10938 4.84219 6.85312 5.48438 5.23125C6.46406 4.92656 8.71875 6.49688 8.71875 6.49688C9.65625 6.23438 10.6641 6.09844 11.6625 6.09844C12.6609 6.09844 13.6688 6.23438 14.6063 6.49688C14.6063 6.49688 16.8609 4.92188 17.8406 5.23125C18.4828 6.85781 18.0844 8.10938 17.9625 8.41406C18.7125 9.24375 19.1719 9.89062 19.1719 11.175C19.1719 15.6984 16.4109 16.0594 13.7906 16.3547C14.2219 16.725 14.5875 17.4281 14.5875 18.5297C14.5875 20.1094 14.5734 22.0641 14.5734 22.4484C14.5734 22.7531 14.7891 23.1234 15.3844 23.0156C20.0719 21.4594 23.25 17.0109 23.25 11.8125C23.25 5.31094 17.9766 0.375 11.475 0.375Z" fill="white"/>
</g>
<defs>
<clipPath id="clip0_80:225">
<rect width="23.25" height="24" fill="white"/>
</clipPath>
</defs>
</svg>
