<svg width="40" height="40" viewBox="0 0 40 40" fill="none" xmlns="http://www.w3.org/2000/svg">
<path d="M20.0001 9.99998V12.9833C20.0001 13.7333 20.9001 14.1 21.4167 13.5666L26.0667 8.91665C26.4001 8.58332 26.4001 8.06665 26.0667 7.73332L21.4167 3.08332C20.9001 2.56665 20.0001 2.93332 20.0001 3.68332V6.66665C12.6334 6.66665 6.66675 12.6333 6.66675 20C6.66675 21.7333 7.00008 23.4 7.61675 24.9167C8.06675 26.0333 9.50008 26.3333 10.3501 25.4833C10.8001 25.0333 10.9834 24.35 10.7334 23.75C10.2501 22.6 10.0001 21.3167 10.0001 20C10.0001 14.4833 14.4834 9.99998 20.0001 9.99998ZM29.6501 14.5166C29.2001 14.9666 29.0167 15.6666 29.2667 16.25C29.7334 17.4166 30.0001 18.6833 30.0001 20C30.0001 25.5167 25.5167 30 20.0001 30V27.0166C20.0001 26.2666 19.1001 25.9 18.5834 26.4333L13.9334 31.0833C13.6001 31.4167 13.6001 31.9333 13.9334 32.2667L18.5834 36.9166C19.1001 37.4333 20.0001 37.0667 20.0001 36.3333V33.3333C27.3667 33.3333 33.3334 27.3667 33.3334 20C33.3334 18.2667 33.0001 16.6 32.3834 15.0833C31.9334 13.9666 30.5001 13.6666 29.6501 14.5166Z" fill="white"/>
</svg>
